<svg id="Capa_1" data-name="Capa 1" xmlns="http://www.w3.org/2000/svg" viewBox="0 0 49.65 49.65"><defs><style>.cls-1{fill:#623b13;}</style></defs><title>behance-icon-white</title><path class="cls-1" d="M20.89,20.69c0-1.9-1.29-1.9-1.29-1.9H14.28v4.07h5C20.13,22.86,20.89,22.59,20.89,20.69Z"/><path class="cls-1" d="M33.22,22.86A3.26,3.26,0,0,0,30,25.68h6A2.73,2.73,0,0,0,33.22,22.86Z"/><path class="cls-1" d="M19.6,25.68H14.28v4.89h5c.76,0,2.2-.24,2.2-2.38C21.53,25.66,19.6,25.68,19.6,25.68Z"/><path class="cls-1" d="M24.83,0A24.83,24.83,0,1,0,49.65,24.83,24.86,24.86,0,0,0,24.83,0Zm4.39,16.61h7.54v2.26H29.22ZM25.41,28.42c0,5.58-5.81,5.39-5.81,5.39H10.09V15.54H19.6c2.89,0,5.17,1.6,5.17,4.87A3.17,3.17,0,0,1,22,23.88C25.66,23.88,25.41,28.42,25.41,28.42Zm14.1-.3H30a3,3,0,0,0,3.22,3.18c3,0,2.93-2,2.93-2h3.22c0,5.22-6.26,4.86-6.26,4.86-7.5,0-7-7-7-7s0-7,7-7C40.55,20.19,39.51,28.12,39.51,28.12Z"/></svg>