<svg width="100" height="100" viewBox="0 0 100 100" fill="none" xmlns="http://www.w3.org/2000/svg">
<g clip-path="url(#clip0_641_18568)">
<path d="M91.975 49.7242C91.975 49.5285 91.975 49.339 91.9689 49.1433C91.9627 48.5256 91.9442 47.9019 91.9257 47.2842C91.8824 46.0672 91.7528 44.8503 91.7034 43.6394C91.6911 43.401 91.6973 43.1625 91.6911 42.924C91.6911 42.8261 91.6972 42.7099 91.6787 42.6182C91.654 42.5203 91.6046 42.5142 91.5429 42.447C91.4812 42.3858 91.4935 42.3797 91.4935 42.3002C91.4874 42.184 91.4997 42.0617 91.4935 41.9455C91.475 41.6825 91.2096 41.4379 91.0244 41.2667C91.0984 41.1811 91.154 41.0832 91.2219 40.9976C91.296 40.9059 91.4071 40.8692 91.475 40.7897C91.5367 40.7224 91.5182 40.6796 91.5059 40.5757C91.4688 40.1782 91.4256 39.7868 91.3886 39.3893C91.3022 38.6065 91.2096 37.8176 91.1046 37.0349C90.9256 35.714 90.7095 34.393 90.4441 33.0844C90.3144 32.4484 90.1724 31.8124 90.0181 31.1825C89.944 30.8767 89.8638 30.5709 89.7774 30.2652C89.7341 30.1184 89.7033 29.9716 89.6292 29.8371C89.5551 29.7026 89.4378 29.5803 89.4378 29.4213V29.1522C89.4378 28.9871 89.4317 28.9809 89.3082 28.8831C89.1415 28.7547 89.0612 28.6079 89.0612 28.4C89.0612 28.2165 89.1106 27.9841 88.9501 27.8618C88.802 27.7518 88.6229 27.8007 88.5057 27.6723C88.3205 27.4766 88.3019 27.2014 88.3019 26.9445C88.3019 26.8467 88.3143 26.7427 88.2896 26.6449C88.2649 26.5531 88.2093 26.4614 88.1846 26.3575C88.1414 26.1373 87.9933 25.9661 87.9501 25.7459C87.9254 25.6114 87.876 25.5197 87.8019 25.4035C87.5179 24.9448 87.1846 24.4189 86.771 24.0642C85.598 23.0552 84.3757 22.0889 83.067 21.2511C82.6349 20.9759 82.1965 20.713 81.7397 20.4806C81.4311 20.3216 80.5977 20.1198 80.4372 19.8507C80.2026 19.4532 80.4989 17.955 80.4742 17.4352C80.4557 17.0377 80.3754 16.6218 80.3878 16.2243C80.3939 16.102 80.4372 15.998 80.4063 15.8696C80.3569 15.6923 80.2828 15.5944 80.2828 15.4049C80.2828 15.252 80.3199 15.0379 80.2705 14.8912C80.2458 14.8117 80.1717 14.7016 80.1223 14.6343C80.0421 14.5304 79.9803 14.5487 79.8754 14.4998C79.789 14.4631 79.7149 14.3836 79.647 14.3163C79.5667 14.2368 79.5297 14.2185 79.4186 14.1696C79.4371 14.1451 79.4494 14.1023 79.468 14.0778C79.4865 14.0472 79.5297 14.0228 79.5482 13.9922C79.5976 13.9005 79.5544 13.8026 79.6038 13.7048C79.6346 13.6498 79.7211 13.6253 79.6902 13.5397C79.6531 13.4235 79.5359 13.5458 79.4741 13.4846C79.4 13.4051 79.468 13.0199 79.468 12.9037C79.468 12.2677 79.1346 11.7295 78.8259 11.1791C78.1222 9.93162 77.1715 8.81862 75.9986 7.98082C75.6961 7.76678 75.3936 7.55886 75.0787 7.36317C74.5849 7.05128 74.0725 6.76386 73.5478 6.49479C73.2885 6.36025 73.0292 6.23183 72.7699 6.10952C72.5662 6.01167 72.344 5.9811 72.1403 5.88937C72.0723 5.85879 72.0168 5.82821 71.9427 5.8221C71.8192 5.80987 71.6958 5.82821 71.5723 5.8221C71.418 5.81598 71.455 5.76094 71.3933 5.63864C71.3562 5.56525 71.276 5.51021 71.2266 5.44906C71.1649 5.37568 71.1402 5.29618 71.0908 5.21668C70.9735 5.03322 70.6834 5.13718 70.5105 5.17387C70.3809 5.19833 70.3377 5.23502 70.2204 5.30229C70.1525 5.3451 70.0599 5.41237 69.9796 5.43683C69.7821 5.51021 69.5722 5.29006 69.4363 5.17998C69.3623 5.11883 69.2512 5.11272 69.1894 5.06379C69.1277 5.01487 69.1339 4.90479 69.0845 4.84364C68.9734 4.69687 68.7017 4.53787 68.5227 4.47672C68.4363 4.44614 68.3499 4.43391 68.2634 4.41557C67.7202 4.28103 67.1893 4.1098 66.646 3.96914C65.8929 3.77345 65.1336 3.59611 64.3743 3.43711C63.9977 3.35761 63.6211 3.28422 63.2445 3.21084C62.905 3.14969 62.5902 3.14357 62.2445 3.14357C62.1642 3.14357 62.084 3.13746 61.9975 3.14357C61.8864 3.14969 61.8988 3.16803 61.8062 3.21696C61.7383 3.25365 61.6457 3.26588 61.5654 3.25365C61.4543 3.2353 61.4481 3.18026 61.3493 3.11911C61.2753 3.0763 61.2135 3.11911 61.1394 3.08853C61.0839 3.06407 61.0654 3.00292 61.0222 2.96011C60.911 2.8378 60.8678 2.77053 60.7011 2.77053H60.2628C60.0962 2.77053 59.9665 2.77053 59.806 2.72773C59.6887 2.69715 59.5591 2.73384 59.4418 2.70327C59.3122 2.67269 59.1949 2.66046 59.0467 2.66046C58.985 2.66046 58.9171 2.67269 58.8553 2.66046C58.7689 2.64823 58.738 2.58707 58.664 2.56261C58.417 2.47088 58.096 2.61154 57.8491 2.60542C57.7194 2.60542 57.5836 2.59319 57.4725 2.62988C57.3243 2.67269 57.2071 2.795 57.0527 2.81334C56.8675 2.8378 56.849 2.72773 56.7441 2.5993C56.707 2.5565 56.6576 2.51981 56.6206 2.48311C56.5774 2.43419 56.5527 2.34246 56.4971 2.31188C56.3922 2.24461 56.1576 2.28131 56.0218 2.28131C55.8983 2.28131 55.7502 2.30577 55.6329 2.28131C55.565 2.26908 55.5156 2.23238 55.4477 2.22015C55.3674 2.20792 55.2686 2.22015 55.1884 2.22015C55.0341 2.22015 54.8797 2.23238 54.7316 2.18958C54.3797 2.09173 53.9908 2.11008 53.6266 2.09173C52.5647 2.03669 51.4968 2 50.435 2H49.83C49.1818 2 48.5274 2.01835 47.8792 2.04281C47.2927 2.06727 46.7001 2.09173 46.1136 2.12842C45.5889 2.159 45.058 2.22015 44.5271 2.22015H43.3357C43.2122 2.22015 43.1999 2.21404 43.1196 2.26908C43.0764 2.29965 43.027 2.35469 42.9776 2.39138C42.9467 2.41584 42.9282 2.45254 42.8912 2.47088C42.8109 2.50757 42.7245 2.46477 42.6443 2.48923C42.5208 2.53204 42.4591 2.62377 42.3171 2.64211C42.1813 2.66046 42.0269 2.64211 41.8849 2.64211C41.7738 2.64211 41.6071 2.61154 41.5084 2.65434C41.3664 2.70938 41.2491 2.84392 41.138 2.93565C40.891 3.13134 40.5083 2.99069 40.2799 2.86227C40.2058 2.81946 40.2675 2.80111 40.1626 2.80723C40.0947 2.81334 40.0391 2.85615 39.9712 2.86838C39.8601 2.88673 39.7305 2.86838 39.6193 2.86838C39.3724 2.86838 39.1008 2.8378 38.8662 2.89284C37.86 3.13134 36.8228 3.26588 35.8042 3.47992C35.0079 3.65115 34.2115 3.84072 33.4214 4.04864C33.0386 4.1526 32.6559 4.29326 32.2731 4.36053C32.125 4.38499 32.02 4.42168 31.8842 4.48283C31.7299 4.55622 31.5262 4.54399 31.3903 4.64795C31.2916 4.72133 31.2484 4.78249 31.1249 4.80083C31.0076 4.81306 30.8841 4.80083 30.7668 4.80083C30.6557 4.80083 30.6434 4.80083 30.5693 4.84976C30.5261 4.88033 30.4829 4.93537 30.4335 4.97206C30.3285 5.05156 30.273 5.10048 30.1495 5.11883C30.0507 5.13106 30.0137 5.17387 29.9334 5.22891C29.8902 5.25948 29.8408 5.27783 29.7976 5.31452C29.7482 5.35121 29.705 5.44294 29.6618 5.46741C29.4951 5.57137 29.2235 5.45518 29.026 5.55914C28.7852 5.68756 28.5506 5.83433 28.3099 5.96275C28.1741 6.03613 28.0815 6.01167 27.9456 6.04225C27.9024 6.05448 27.8901 6.07894 27.8284 6.08506C27.779 6.09117 27.7111 6.06671 27.6617 6.09117C27.6308 6.10952 27.5876 6.16456 27.5567 6.18902C27.5012 6.23794 27.4271 6.26852 27.3654 6.30521C27.211 6.39082 27.0814 6.41529 26.9209 6.46421C26.6801 6.53148 26.4332 6.72105 26.2171 6.84336C25.9949 6.96567 25.7788 7.09409 25.5628 7.22251C25.1738 7.46101 24.7973 7.71174 24.4269 7.9747C24.2046 8.1337 23.9207 8.30493 23.7725 8.5312C23.6799 8.66574 23.6737 8.71466 23.5256 8.78804C23.3651 8.87366 23.2293 8.99597 23.0873 9.10604C23.0008 9.17331 22.8589 9.25281 22.7909 9.32619C22.723 9.39958 22.6737 9.50966 22.5996 9.58916C22.5131 9.687 22.4144 9.74815 22.328 9.82765C22.2415 9.90715 22.2539 9.95608 22.2539 10.0723C22.2539 10.164 22.2292 10.2863 22.2539 10.3719C22.2724 10.4575 22.3094 10.482 22.3094 10.586C22.3094 10.7021 22.3094 10.7633 22.365 10.8673C22.4082 10.9468 22.4823 11.0813 22.3712 11.1302C22.2971 11.1608 22.1242 11.1241 22.0378 11.1241H21.7724C21.4946 11.1241 21.3834 11.2464 21.3587 11.5155C21.3279 11.8213 21.1303 12.1026 21.013 12.3839C20.7599 12.9954 20.5562 13.6253 20.4019 14.2674C20.1241 15.4049 19.9821 16.579 19.9512 17.747C19.9389 18.1873 19.9451 18.6215 19.9698 19.0618C19.9698 19.1108 20.0377 19.8018 20.0253 19.8079C19.0931 20.0525 16.9942 20.927 13.352 24.0581C12.9939 24.37 12.6976 24.8103 12.4445 25.2078C12.2284 25.538 11.9815 25.8927 11.8334 26.2535C11.8025 26.3269 11.7963 26.388 11.7716 26.4614C11.7346 26.596 11.6852 26.6204 11.6049 26.7244C11.5926 26.7611 11.5864 26.7978 11.5864 26.8345C11.5494 26.8956 11.5 26.9506 11.4383 26.9996C11.3642 27.0852 11.2963 27.1219 11.2716 27.2381C11.2284 27.4215 11.358 27.5133 11.4568 27.6417C11.5926 27.8129 11.8148 27.9597 11.8334 28.1921C11.7161 28.2043 11.6358 28.2654 11.5185 28.2838C10.8333 28.4 10.6975 28.6385 10.2962 29.1889C10.2159 29.2989 10.1357 29.4213 10.148 29.5497C10.1542 29.6536 10.2221 29.7454 10.2777 29.8371C10.6604 30.4976 10.1357 31.2987 9.96902 31.9408C9.88877 32.2588 9.8579 32.5523 9.70974 32.8703C9.60479 33.0966 9.40108 33.329 9.40108 33.5919C9.40108 33.7754 9.49367 33.9405 9.47515 34.1301C9.42577 34.7233 9.27144 35.3287 9.17884 35.9158C8.99981 37.1021 8.85165 38.2946 8.72201 39.4871C8.66028 40.0925 8.63559 40.7102 8.53064 41.3034C8.50595 41.4379 8.46273 41.5786 8.49977 41.7192C8.53681 41.8538 8.64793 41.921 8.66645 42.08C8.70349 42.398 8.54916 42.6426 8.97512 42.6916C9.0245 42.9362 9.18501 43.2236 8.95042 43.4132C8.78992 43.5477 8.61707 43.5538 8.58003 43.8107C8.54916 43.988 8.5862 44.2082 8.5862 44.3916C8.5862 44.5201 8.61707 44.6179 8.62941 44.7341C8.64793 44.8809 8.61089 44.8809 8.52447 45.0154C8.2405 45.4312 8.25902 45.8654 8.25902 46.3424C8.25902 46.4586 8.27136 46.5809 8.25902 46.7032C8.25284 46.8317 8.19728 46.9112 8.17259 47.0274C8.1232 47.2536 8.19728 47.486 8.13555 47.7123C8.03678 48.0731 8.01826 48.4522 8.01208 48.8375C8.01208 48.9231 7.98739 49.0332 8.00591 49.1188C8.03678 49.2472 8.10468 49.2533 8.17876 49.3451C8.25902 49.449 8.22815 49.4307 8.25902 49.5713C8.28371 49.6998 8.37631 49.8404 8.42569 49.9627C8.4936 50.1156 8.52447 50.3541 8.61707 50.4948C8.73436 50.6905 8.82696 50.7394 8.82079 51.0023C8.82079 51.1124 8.85165 51.2592 8.80227 51.3631C8.7714 51.4365 8.66028 51.4977 8.62324 51.5772C8.53681 51.7545 8.58003 51.9808 8.57385 52.1826C8.57385 52.3966 8.49977 52.574 8.4936 52.788C8.48743 52.9898 8.50595 53.1916 8.4936 53.3873C8.48743 53.4852 8.45039 53.5402 8.42569 53.6258C8.401 53.7237 8.41952 53.8093 8.41335 53.9071C8.401 54.0111 8.34544 54.0906 8.32692 54.1884C8.3084 54.2924 8.3331 54.4269 8.3331 54.5309V57.344C8.3331 57.5213 8.28371 57.7965 8.32692 57.9738C8.37631 58.1695 8.63559 58.2185 8.72201 58.3897C8.78375 58.512 8.82079 58.7199 8.82079 58.8545C8.81461 59.0991 8.82079 59.3376 8.82079 59.5822V60.2916C8.82079 60.4016 8.81461 60.5178 8.82079 60.6279C8.82696 60.7624 8.89487 60.8603 8.90721 60.9887C8.92573 61.1538 8.88252 61.3251 8.91956 61.4902C8.94425 61.5941 8.98129 61.6736 8.98129 61.7959C8.98746 61.8999 8.96277 62.01 8.97512 62.1139C8.98746 62.2301 9.04302 62.3219 9.06154 62.4381C9.08006 62.5726 9.05537 62.6337 9.14797 62.7622C9.24057 62.8906 9.28996 62.9028 9.30848 63.0618C9.32082 63.2147 9.3023 63.3798 9.3023 63.5327C9.3023 63.6489 9.33317 63.8079 9.30848 63.918C9.28378 64.0219 9.2344 64.0586 9.22205 64.1687C9.19118 64.395 9.21588 64.6702 9.22205 64.8964C9.22205 65.0187 9.20353 65.0982 9.29613 65.1961C9.4196 65.3184 9.47515 65.3062 9.56775 65.4713C9.68505 65.6914 9.74678 65.9299 9.79617 66.1745C9.83938 66.3825 9.78999 66.6454 9.78999 66.8595C9.79617 67.1591 9.88877 67.3915 9.96902 67.6728C10.0431 67.9174 10.0678 68.1804 10.1357 68.4311C10.2839 69.0121 10.4444 69.593 10.6296 70.1679C10.9567 71.2075 11.3395 72.2349 11.8395 73.2072C12.0803 73.6781 12.3581 74.1428 12.6729 74.577C12.6914 74.4058 12.784 74.3202 13.0001 74.3752C12.9878 74.5709 12.9754 74.7605 12.9631 74.9501C13.0804 75.0968 13.2038 75.2375 13.3396 75.372C16.9819 78.5031 19.0808 79.3776 20.013 79.6222C20.0253 79.6222 19.9574 80.3194 19.9574 80.3744C19.9389 80.7841 19.9327 81.1938 19.9389 81.6036C19.9636 82.7533 20.0932 83.903 20.3587 85.0282C20.6735 86.3736 21.1859 87.6822 21.939 88.8442C22.2971 89.4006 22.723 89.8776 23.1552 90.373C23.2478 90.477 23.2663 90.6054 23.3465 90.7093C23.4453 90.8378 23.5935 90.8255 23.7416 90.8255C23.8589 90.8255 23.9515 90.8745 24.0688 90.8806C24.217 90.8806 24.2664 90.9784 24.396 91.0334C24.5503 91.1007 24.6059 91.1313 24.6491 91.3086C24.6615 91.3759 24.6923 91.4371 24.7232 91.4982C24.7541 91.5594 24.8281 91.6205 24.8528 91.6817C24.9022 91.804 24.8343 91.9263 24.9578 92.0241C25.001 92.0547 25.038 92.0486 25.0812 92.0731C25.1615 92.1159 25.18 92.1587 25.2788 92.1709C25.5195 92.2015 25.8344 92.0914 26.0566 92.1709C26.1492 92.2076 26.3468 92.3483 26.3776 92.4339C26.3962 92.4889 26.3715 92.5378 26.4023 92.5929C26.4455 92.6601 26.532 92.6785 26.5999 92.7152C26.7172 92.7763 26.7172 92.8925 26.8098 92.9842C26.9147 93.0821 26.9888 93.1677 27.1123 93.2411C27.2295 93.3084 27.3221 93.4123 27.4394 93.4612C27.5382 93.4979 27.637 93.5958 27.7358 93.6264C27.8839 93.6631 28.0629 93.5713 28.1988 93.6508C28.2728 93.6936 28.316 93.7792 28.3901 93.8282C28.5198 93.9138 28.7111 93.9872 28.8593 94.0422C29.0136 94.0972 29.1741 94.1278 29.3346 94.1523C29.631 94.1951 29.8964 94.2807 30.1804 94.3847C30.878 94.6354 31.5755 94.8678 32.2855 95.0757C32.5818 95.1613 32.8781 95.2469 33.1744 95.3264C33.3288 95.3692 33.5078 95.3876 33.6498 95.461C33.7115 95.4977 33.7547 95.5588 33.8226 95.5894C34.0016 95.6811 34.2424 95.6139 34.4338 95.6077C34.6005 95.6016 34.7918 95.5466 34.9462 95.5038C35.1067 95.4548 35.4339 95.357 35.5326 95.5527C35.5697 95.6322 35.5635 95.7239 35.6191 95.7973C35.6746 95.8646 35.7919 95.9135 35.866 95.9563C36.082 96.0664 36.366 96.0847 36.6068 96.1337C37.9958 96.4088 39.3971 96.6351 40.8046 96.8186C40.9651 96.8369 41.1133 96.8675 41.2676 96.8981C41.3479 96.9103 41.459 96.9225 41.5392 96.892C41.5701 96.8492 41.6071 96.8125 41.6565 96.788C41.7244 96.7513 41.7985 96.733 41.8726 96.7391C41.9837 96.6963 41.9467 96.6412 42.0393 96.5862L42.1504 96.5678C42.1936 96.5373 42.2306 96.5067 42.2739 96.47C42.3726 96.3966 42.4405 96.3966 42.5455 96.3538C42.6443 96.311 42.6381 96.2621 42.743 96.256C42.9221 96.2437 43.0085 96.3722 43.0208 96.5189C43.1011 96.5373 43.1752 96.5067 43.2554 96.5312C43.3665 96.5617 43.4159 96.6596 43.5023 96.7146C43.5764 96.7574 43.6135 96.7697 43.6752 96.8369C43.7246 96.892 43.774 96.9287 43.848 96.947C44.0888 97.0204 44.3419 96.9653 44.5827 97.002C44.6629 97.0143 44.7555 97.0571 44.8234 97.0877C44.9284 97.1427 44.9407 97.1549 45.0642 97.161C45.1753 97.1672 45.2803 97.21 45.3914 97.2161C45.5148 97.2222 45.6445 97.1916 45.7679 97.21C45.9099 97.2283 45.9964 97.32 46.1507 97.3262H46.3606C46.6075 97.3262 46.9162 97.2772 47.1508 97.3567C47.3668 97.4301 47.5026 97.3995 47.7249 97.3995C48.3484 97.3995 48.9657 97.4423 49.5892 97.4485H50.472C51.8054 97.4485 53.1389 97.3934 54.4661 97.3139C54.6698 97.3017 54.8674 97.2528 55.0649 97.3078C55.2748 97.3628 55.3489 97.2528 55.5403 97.1855C55.6143 97.161 55.6576 97.1427 55.7193 97.106C55.7563 97.0877 55.7502 97.0754 55.7995 97.051C55.8304 97.0326 55.8798 97.0265 55.9107 97.0143C56.0403 96.9592 56.1329 96.8614 56.2502 96.7819C56.386 96.6902 56.5403 96.7697 56.707 96.8125C56.8737 96.8492 57.0342 96.8186 57.2009 96.8369C57.2935 96.8492 57.3244 96.9042 57.417 96.9348C57.5096 96.9653 57.6207 96.947 57.7194 96.9409C57.8985 96.9409 58.0466 96.9286 58.2195 96.8981C58.2874 96.8858 58.3615 96.9042 58.4232 96.8858C58.4726 96.8736 58.4973 96.8369 58.5343 96.8063C58.6022 96.7574 58.6454 96.7513 58.7195 96.7268C58.7812 96.7085 58.8492 96.6963 58.9109 96.6718C58.9664 96.6535 58.9788 96.629 59.0282 96.6045C59.0961 96.5678 59.127 96.5801 59.2072 96.5556C59.2875 96.5312 59.2998 96.4455 59.3677 96.415C59.4665 96.366 59.6825 96.4027 59.7937 96.4027C59.9727 96.4027 60.1209 96.3232 60.2937 96.2927C60.4172 96.2743 60.5715 96.2927 60.7011 96.2927C60.874 96.2927 61.1024 96.2499 61.2629 96.2927C61.3864 96.3232 61.3864 96.4333 61.479 96.5006C61.5407 96.5495 61.6518 96.5556 61.7259 96.5617C61.8926 96.574 62.0531 96.5556 62.2136 96.5006C62.2939 96.47 62.3741 96.4088 62.4544 96.3966C62.5223 96.3844 62.5902 96.4027 62.6581 96.3844C62.7136 96.3722 62.7568 96.3416 62.8309 96.3416C62.9544 96.3416 63.0285 96.3171 63.1272 96.256C63.3001 96.1459 63.4791 96.0725 63.6828 96.0725C63.7507 96.0725 63.8433 96.0909 63.9113 96.0725C64.2508 95.9991 64.6027 95.9624 64.9484 95.8829C65.3373 95.7973 65.7262 95.7056 66.1089 95.6139C66.8868 95.4243 67.6584 95.2164 68.4178 94.984C69.9179 94.5314 71.3995 93.9872 72.8131 93.3145C73.9367 92.7824 75.0232 92.1709 76.0294 91.4493C81.1718 87.7556 80.5606 80.6312 80.4372 79.5182C80.4989 79.4999 80.5606 79.4754 80.6224 79.4571C81.4619 79.1513 82.2459 78.711 82.9991 78.2401C83.6041 77.861 84.1843 77.4512 84.7523 77.0232C85.0424 76.803 85.4622 76.5768 85.6598 76.2649C85.8388 75.9836 86.1536 75.9102 86.4376 75.7451C86.5549 75.6778 86.666 75.5677 86.7771 75.4882C86.8327 75.4454 86.9006 75.4332 86.9562 75.3904C87.0055 75.3476 87.0302 75.2925 87.0734 75.2436C87.2216 75.0907 87.4438 74.944 87.5611 74.7666C87.592 74.7238 87.6229 74.6382 87.6476 74.5893C87.6661 74.5465 87.6908 74.4975 87.7093 74.4547C87.7463 74.363 87.7772 74.2468 87.8204 74.1612C87.8575 74.0939 87.913 74.0389 87.9501 73.9716C87.9809 73.9105 87.9933 73.8738 88.0118 73.8065C88.055 73.6964 88.1661 73.5925 88.2402 73.513C88.3019 73.4518 88.518 73.2928 88.5303 73.2072C88.5365 73.1399 88.4624 73.1155 88.4377 73.0604C88.4069 72.9932 88.4254 72.9075 88.4439 72.8403C88.4686 72.7424 88.5118 72.6446 88.5427 72.5529C88.5612 72.4978 88.5859 72.4856 88.5921 72.4122C88.6044 72.3021 88.5859 72.3143 88.6415 72.2349C88.7402 72.1003 88.7526 72.082 88.7526 71.9046C88.7526 71.764 88.7217 71.6172 88.8081 71.501C88.8699 71.4154 88.9501 71.4032 88.9687 71.2992C88.981 71.2442 88.9625 71.1769 88.9625 71.1219C88.9686 71.0057 89.0304 70.9139 89.0612 70.7977C89.1045 70.6326 89.0489 70.5592 89.1847 70.4247C89.3329 70.2779 89.2526 70.1862 89.302 70.0027C89.444 70.0027 89.586 69.8071 89.6724 69.7031C89.728 69.6358 89.8206 69.5441 89.8391 69.4585C89.8514 69.3912 89.8329 69.3239 89.8453 69.2628C89.87 69.1588 89.9317 69.0732 89.944 68.957C89.9564 68.8531 89.944 68.7491 89.944 68.6451C89.944 68.4678 89.9255 68.2721 90.0058 68.107C90.0798 67.948 90.1231 67.8685 90.1724 67.6789C90.2897 67.1652 90.4009 66.6515 90.5058 66.1378C90.6293 65.5324 90.728 64.9209 90.9318 64.3399C90.9626 64.2421 90.9997 64.1626 90.9811 64.0586C90.9688 63.973 90.9071 63.9424 90.8824 63.8752C90.833 63.759 90.8762 63.5572 90.87 63.4287C90.87 63.2392 90.7033 63.1352 90.6293 62.964C90.5428 62.7744 90.4811 62.646 90.6663 62.487C90.7219 62.4381 90.8083 62.4197 90.8577 62.3708C90.8947 62.3341 90.9132 62.2485 90.9565 62.2057C91.0737 62.0711 91.1725 61.8877 91.2157 61.7164C91.2836 61.4596 91.2836 61.1722 91.3145 60.9031C91.3515 60.5973 91.3824 60.2916 91.4195 59.9858C91.4812 59.4171 91.5367 58.8545 91.5861 58.2857C91.6417 57.6803 91.6911 57.0749 91.7343 56.4695C91.7528 56.1759 91.796 55.913 91.8577 55.6255C91.8886 55.4788 91.8701 55.3381 91.8392 55.1975C91.7898 55.0018 91.8516 54.855 91.8516 54.6593V54.3352C91.8516 54.2312 91.8578 54.1212 91.8516 54.0111C91.8454 53.8521 91.7466 53.8643 91.6849 53.742C91.6602 53.6992 91.6911 53.6625 91.6479 53.6197C91.617 53.583 91.5553 53.5952 91.5306 53.5586C91.475 53.4791 91.5182 53.2222 91.5182 53.1366V52.4028C91.5182 52.2988 91.5306 52.1826 91.5182 52.0786C91.5059 51.9747 91.4441 51.9135 91.4195 51.8096C91.3948 51.7117 91.3886 51.6078 91.4441 51.5283C91.4935 51.461 91.5738 51.3998 91.6232 51.3265C91.6726 51.247 91.759 51.198 91.8022 51.1124C91.8392 51.039 91.8331 50.9901 91.8886 50.929C91.9257 50.8861 91.9627 50.8861 91.9812 50.825C91.9874 50.8005 91.9874 50.77 91.9874 50.7455C92.0059 50.5498 91.9936 50.3541 91.9997 50.1584C91.975 50.0361 91.975 49.8771 91.975 49.7181V49.7242ZM10.4258 53.6503C10.2592 53.583 10.2098 53.0754 10.3518 52.9715C10.3765 52.9531 10.4135 52.9409 10.4629 52.9164C10.5123 52.9715 10.6049 53.0204 10.611 53.0816C10.6234 53.2528 10.611 53.4301 10.5863 53.6014C10.5863 53.6258 10.4691 53.6686 10.4258 53.6503V53.6503ZM10.8209 60.42C10.6851 60.2854 10.5678 60.0531 10.5925 59.8757C10.611 59.7228 10.8333 59.5944 10.9629 59.4599C11.0061 59.4599 11.0555 59.4599 11.0987 59.4721C11.1666 59.7473 11.2345 60.0164 11.3148 60.3711C11.1234 60.3894 10.8888 60.4873 10.8209 60.42V60.42ZM11.0247 61.0009C11.0123 60.9092 11.0493 60.8053 11.0864 60.7135C11.0987 60.6891 11.216 60.6768 11.2345 60.6952C11.2963 60.7747 11.3518 60.8664 11.3765 60.9581C11.4197 61.1233 11.4383 61.2945 11.463 61.4657C11.4815 61.6002 11.4815 61.7348 11.5 61.8693C11.5185 62.0161 11.5432 62.1567 11.5679 62.3035C11.5988 62.3157 11.6296 62.3341 11.6605 62.3463C11.5741 62.4197 11.4876 62.4931 11.3457 62.6093C11.2778 62.3157 11.2098 62.0834 11.1605 61.8449C11.1111 61.5636 11.0617 61.2823 11.0247 61.0009V61.0009ZM11.358 62.756C11.4938 62.8784 11.6296 62.9946 11.7593 63.1169C11.7284 63.178 11.6975 63.2331 11.6667 63.2942C11.5309 63.2575 11.321 63.2575 11.2839 63.178C11.2407 63.0618 11.3333 62.8967 11.358 62.756V62.756ZM12.3396 71.8985C12.3025 71.7701 12.2408 71.6478 12.2346 71.5194C12.2038 70.9445 12.2346 70.3574 12.1544 69.7887C12.0186 68.8347 11.8025 67.8868 11.6358 66.9328C11.5802 66.6026 11.5679 66.2663 11.5494 65.9299C11.5 65.1716 11.4506 64.4072 11.4136 63.6489C11.4136 63.5939 11.463 63.5388 11.4938 63.4838C11.5494 63.5144 11.6482 63.5388 11.6543 63.5755C11.6975 63.9791 12.0186 64.3155 11.7901 64.7925C11.6852 65.0126 11.8951 65.3795 11.963 65.6731C11.9815 65.7648 12.0124 65.8504 12.0247 65.9421C12.1235 66.5659 12.247 67.1897 12.3087 67.8196C12.3643 68.3638 12.3457 68.9142 12.3766 69.4585C12.3951 69.8437 12.4198 70.2351 12.4754 70.6204C12.5248 70.9262 12.6606 71.2197 12.6914 71.5194C12.7038 71.6417 12.5433 71.7762 12.4569 71.9107C12.5927 72.033 12.6853 72.1125 12.8026 72.2104C12.6421 72.3082 12.5371 72.3694 12.3704 72.4672C12.3889 72.2715 12.3951 72.1248 12.4136 71.9046C12.3889 71.9046 12.3643 71.9046 12.3396 71.8985V71.8985ZM12.7223 74.204C12.3087 73.7392 12.5186 73.1888 12.4136 72.6996C12.4507 72.6752 12.4939 72.6568 12.5309 72.6323C12.5927 72.7118 12.6791 72.7852 12.7038 72.877C12.7717 73.091 12.784 73.3234 12.8766 73.5252C12.9939 73.7943 12.9137 73.9838 12.7223 74.204V74.204ZM21.902 15.3009C21.9082 15.3437 21.9143 15.3865 21.9267 15.4232C21.6983 15.4477 21.4699 15.4905 21.2353 15.4905C21.1859 15.4905 21.1365 15.3254 21.0377 15.1541C21.3958 15.2153 21.6489 15.2581 21.902 15.3009V15.3009ZM21.4946 17.8449C21.4575 17.9917 21.4267 18.114 21.3896 18.2791C21.2291 18.2668 21.0748 18.2485 20.9204 18.2363C20.9204 17.7654 21.2044 17.8265 21.4946 17.8449V17.8449ZM17.2597 24.266C17.2905 24.2171 17.3831 24.1559 17.4202 24.1743C17.5807 24.2293 17.7288 24.3088 17.9449 24.4128C17.6486 24.6207 17.451 24.7063 17.272 24.4434C17.2473 24.4005 17.235 24.3088 17.2597 24.266ZM13.3582 64.2115C13.0618 63.441 13.0618 63.4165 13.4199 63.1964C13.6236 63.6183 13.5989 64.0892 13.3582 64.2115ZM13.8767 71.4888C13.8644 71.4276 13.8582 71.3665 13.8458 71.3053C13.9755 71.2809 14.1051 71.2564 14.2348 71.2258C14.2471 71.2992 14.2595 71.3665 14.2718 71.4399C14.136 71.4582 14.0064 71.4704 13.8767 71.4888ZM17.6795 76.3016C17.6054 76.2588 17.5251 76.2343 17.4264 76.1976C17.3708 75.8368 17.3152 75.4699 17.2659 75.103C17.7659 75.0357 18.3956 75.531 18.3585 75.9713C18.3338 76.2588 17.9264 76.4544 17.6795 76.3016V76.3016ZM18.6795 77.4329C18.4758 77.6836 18.3832 77.4023 18.2783 77.3167C18.1486 77.2128 18.0252 77.0782 17.9634 76.9253C17.9202 76.8214 17.982 76.6746 18.0066 76.5034C18.2351 76.6807 18.4017 76.803 18.5561 76.9376C18.7042 77.0721 18.8524 77.225 18.6795 77.4329ZM20.2537 73.9166H19.6858C19.4697 73.9166 19.3401 73.9288 19.1611 73.8371C18.945 73.727 18.803 73.6047 18.5622 73.5802C18.5499 73.4702 18.5005 73.354 18.4696 73.25C18.4264 73.1155 18.34 72.9932 18.3091 72.8586C18.2474 72.6079 18.2042 72.4672 18.056 72.241C17.84 71.9169 17.5004 71.7028 17.1979 71.4521C16.3275 70.333 15.9324 68.7674 15.5744 67.4343C15.3583 66.6148 15.1731 65.7893 15.0126 64.9637C14.957 64.6885 14.9323 64.5662 14.8027 64.3522C14.7225 64.2237 14.741 64.1687 14.7286 64.0219C14.7163 63.8813 14.6484 63.759 14.6484 63.6183C14.6422 63.4654 14.5743 63.392 14.5187 63.2575C14.4755 63.1413 14.494 63.0496 14.4755 62.9273C14.4323 62.6765 14.4014 62.4686 14.4014 62.2118C14.4014 62.0772 14.4076 61.9366 14.4014 61.8021C14.3953 61.6797 14.3582 61.6553 14.3274 61.5574C14.2718 61.3617 14.2286 61.1722 14.173 60.9643C14.1113 60.738 14.1669 60.4689 14.1545 60.2365C14.1483 60.0653 14.0557 59.9858 14.0064 59.8329C13.9693 59.7228 14.0187 59.6189 13.994 59.5088C13.9755 59.4354 13.9261 59.3315 13.8952 59.252C13.8397 59.1052 13.7532 59.0135 13.5927 59.0135C13.6236 58.9462 13.7162 58.8606 13.7718 58.7933C13.8397 58.7016 13.9014 58.6098 13.9631 58.512C14.1113 58.2735 14.0743 58.1451 13.9817 57.876C13.9446 57.772 13.9138 57.7843 13.9076 57.6558C13.9014 57.5213 13.9014 57.4357 13.8705 57.3073C13.8212 57.1055 13.7471 56.9587 13.7471 56.7447V56.1392C13.7471 55.9069 13.7903 55.7356 13.8335 55.5155C13.8829 55.2403 13.9199 54.9467 13.9076 54.6654C13.9014 54.4881 13.8273 54.3413 13.7965 54.1701C13.7039 53.7114 13.7409 53.1916 13.7224 52.7269C13.6977 52.1765 13.6792 51.62 13.6668 51.0696C13.6545 50.6232 13.6421 50.1829 13.6483 49.7365C13.6483 48.4339 13.7718 47.1313 13.7532 45.8349C13.7471 45.1866 13.3643 43.6211 13.9076 43.1502C14.4508 42.6793 14.1113 42.1534 14.0804 41.5174C14.0743 41.4073 14.0434 41.3584 14.0125 41.2606C13.9755 41.126 14.0125 40.9915 13.9755 40.8508C13.8705 40.4534 13.8397 39.854 13.9508 39.4443C14.0125 39.218 14.136 38.9734 14.2409 38.7594C14.2841 38.6677 14.3767 38.5759 14.4014 38.4781C14.4261 38.3864 14.4014 38.2946 14.42 38.2029C14.4508 38.0622 14.5496 37.9399 14.5681 37.7932C14.5866 37.6953 14.5619 37.573 14.5619 37.4752C14.5619 37.2183 14.5558 36.9921 14.5002 36.7474C14.4138 36.3805 14.5126 35.9525 14.6052 35.6222C14.6422 35.4938 14.6731 35.4449 14.599 35.3042C14.5434 35.2003 14.4632 35.188 14.4755 35.0596C14.4879 34.9434 14.5928 34.87 14.6484 34.7783C14.7039 34.6866 14.7163 34.5948 14.7471 34.497C14.7904 34.3625 14.8274 34.2096 14.92 34.1056C15.0064 34.0017 15.099 33.9344 15.1608 33.8121C15.2657 33.6103 15.3768 33.4452 15.3583 33.2189C15.3089 32.5645 15.6176 31.849 15.8028 31.2253C15.846 31.0846 15.8892 30.9379 15.9386 30.7972C16.0065 31.103 16.0682 31.2559 16.2411 31.7145C16.2411 32.3994 15.9818 32.3994 16.2411 33.17V34.5398C16.4139 34.8823 16.5868 35.2818 16.7596 35.7384V37.7076H16.9325V38.5637C17.1918 39.3342 16.9325 39.3342 17.1918 40.1048V41.4746C17.3646 41.9312 17.451 42.3308 17.451 42.6732C17.451 43.1298 17.5375 43.615 17.7103 44.1287C17.7103 44.5853 17.7968 45.0419 17.9696 45.4985L18.1425 45.841L17.9696 46.0122V46.2691C17.9696 46.2691 17.8894 46.3547 17.877 46.3669C17.84 46.4158 17.8029 46.4647 17.7782 46.5198C17.7474 46.5871 17.7227 46.6604 17.7227 46.7277C17.7227 46.7827 17.7288 46.8317 17.7288 46.8867C17.7288 46.9356 17.6918 46.954 17.6548 46.9907C17.5807 47.0641 17.4264 47.1497 17.4325 47.2597V47.4187C17.4325 47.5288 17.3338 47.5533 17.2905 47.645C17.2597 47.7245 17.2288 47.804 17.1856 47.8774C17.0683 48.067 16.914 48.2504 16.7596 48.4094V48.6663C16.5004 48.8375 16.2411 49.3512 16.2411 49.608C16.2411 50.0361 16.5004 50.5498 16.7596 50.8066H16.9325V51.0635C17.1918 51.0635 17.1918 51.2347 17.451 51.2347C17.7103 51.7484 17.9696 52.2621 18.1425 52.6902H18.661L18.9203 52.947L18.661 53.2039C18.661 53.6319 18.9203 53.9744 18.9203 54.2312V55.6867C19.0931 56.1433 19.1796 56.5999 19.1796 57.0565V57.3134C19.1796 57.3134 19.6117 57.3134 19.5932 57.344C19.5191 57.4907 19.445 57.6436 19.3771 57.7904C19.3524 57.8454 19.3154 57.8943 19.2969 57.9555C19.2722 58.035 19.303 58.0717 19.3401 58.139C19.3895 58.2185 19.4142 58.298 19.4265 58.3897C19.4574 58.6098 19.5376 58.8178 19.6055 59.0257H19.3463C19.3463 59.4538 19.6055 59.4538 19.6055 60.2243V61.6797C19.7784 62.1934 19.8648 62.6786 19.8648 63.1352C19.8648 63.6489 19.8648 63.8201 20.1241 64.3338V64.5907C20.1241 65.2756 20.3834 65.2756 20.3834 66.0461V66.4497L20.8649 66.3213C20.8896 66.4436 20.9143 66.572 20.9575 66.7922C20.7167 66.7188 20.55 66.6699 20.3957 66.6148C20.4142 66.835 20.4513 67.0001 20.5562 67.4221V68.8775C20.7291 69.3341 20.8155 69.7907 20.8155 70.2474C21.0748 71.0179 20.8155 71.0179 21.0748 71.7884V73.1583C21.1797 73.4763 21.1859 73.7576 21.2106 74.0817C21.2168 74.1245 21.2229 74.1612 21.2291 74.204C21.0748 74.1306 20.9328 74.045 20.7785 73.9594C20.6056 73.8982 20.4574 73.9105 20.2537 73.9105V73.9166ZM21.723 78.7477C21.5439 78.6927 21.3649 78.6437 21.1859 78.5887L21.1674 78.4786C21.3094 78.4481 21.4575 78.3869 21.5995 78.4052C21.6798 78.4175 21.7415 78.552 21.8156 78.6315C21.7847 78.6743 21.7538 78.711 21.723 78.7477V78.7477ZM21.4328 33.5185C21.3032 33.225 21.5069 33.0415 21.7168 32.9437C22.0502 32.7847 21.8526 33.225 22.0131 33.2372C21.8217 33.329 21.6304 33.4268 21.4328 33.5185ZM84.7152 27.2564C85.1782 27.6295 85.4252 28.8036 85.135 29.1828C84.8758 28.9871 84.5486 27.5438 84.7152 27.2564ZM84.1164 24.4739C84.1164 24.5473 84.1288 24.6757 84.1103 24.6757C83.9559 24.7124 83.8016 24.7185 83.6473 24.7369C83.6411 24.6819 83.6288 24.6268 83.6226 24.5718C83.7831 24.5412 83.9498 24.5106 84.1164 24.4739V24.4739ZM75.6714 9.77262C75.6961 9.70535 75.8566 9.68089 75.9492 9.64419C76.0726 9.82765 75.7022 10.0845 76.2455 10.109C75.9739 10.3169 75.7887 10.4637 75.585 10.6165C75.3565 10.268 75.5788 10.0233 75.6714 9.77262V9.77262ZM53.4907 2.92953C53.6019 2.92953 53.7068 3.11911 53.8117 3.22307C53.6759 3.34538 53.5463 3.47992 53.392 3.57165C53.3611 3.58999 53.2191 3.40042 53.0648 3.24142C53.2438 3.10076 53.3673 2.92953 53.4907 2.92953V2.92953ZM52.3363 2.9173C52.4289 2.94176 52.5462 3.0763 52.5524 3.16803C52.5586 3.24753 52.4413 3.37595 52.3487 3.41265C52.1696 3.47992 51.9783 3.50438 51.7684 3.54718C51.7005 2.94176 51.8363 2.795 52.3363 2.9173V2.9173ZM49.0768 4.3116C48.8052 4.48283 48.5562 4.42576 48.3299 4.14037C48.5521 3.82849 48.8669 3.89576 49.0768 4.3116V4.3116ZM44.774 4.92314C44.9778 4.72745 45.2062 4.54399 45.4408 4.37887C45.7556 4.1526 46.0334 4.20764 46.268 4.55622C46.4223 4.44003 46.5643 4.31772 46.7248 4.21987C46.947 4.08534 47.1693 3.94468 47.41 3.85295C47.4841 3.82849 47.6261 3.96303 47.7187 4.03641C47.7681 4.07311 47.8298 4.1893 47.8175 4.20153C47.6014 4.42168 47.7125 4.83141 47.336 4.96595C47.1446 5.03322 46.9841 5.1861 46.7742 5.32675C46.7063 5.21668 46.6569 5.14329 46.6013 5.05156C46.552 5.06991 46.5087 5.07602 46.4717 5.10049C46.0025 5.41237 45.4716 5.47964 44.9222 5.44906C44.8234 5.44294 44.6629 5.33898 44.6444 5.25948C44.6259 5.16164 44.6876 5.00264 44.774 4.92314V4.92314ZM42.1319 5.13718C42.6875 4.72745 42.9591 4.73968 43.2986 5.16775C43.0826 5.46741 42.4899 5.63864 42.1627 5.48575C42.101 5.45518 42.0331 5.37568 42.0208 5.30841C42.0146 5.25337 42.0825 5.17387 42.1319 5.13718ZM37.5081 4.90479C37.5513 4.80083 37.6562 4.71522 37.6871 4.61126C37.7488 4.40945 37.8476 4.28714 38.0143 4.48283C38.3415 4.84976 38.7859 4.84976 39.2119 4.92925C39.3045 4.9476 39.4095 4.91702 39.4897 4.95372C39.6564 5.0271 39.7366 5.16775 39.57 5.30229C39.428 5.41237 39.2489 5.47964 39.0823 5.56525L39.0637 5.51021C38.6069 5.54079 38.1563 5.5836 37.6994 5.59583C37.5822 5.59583 37.3537 5.49798 37.3599 5.44906C37.3784 5.25948 37.4402 5.07602 37.5081 4.90479V4.90479ZM34.1189 4.99652C34.2794 5.02099 34.4832 5.00264 34.619 4.92925C34.8968 4.77637 35.1684 4.82529 35.4524 4.84976C35.6191 4.8681 35.7857 4.7886 35.9586 4.78249C36.1932 4.77637 36.4278 4.77637 36.6623 4.81306C36.7426 4.82529 36.8475 4.96595 36.8537 5.05156C36.8599 5.13718 36.7673 5.28395 36.6932 5.30841C36.471 5.36956 36.2364 5.4246 36.0141 5.40014C35.6623 5.36345 35.2487 5.51633 34.9523 5.1066C34.5819 5.63864 33.9893 5.45518 33.5016 5.60806C33.4831 5.59583 33.4522 5.5836 33.4522 5.56525C33.4461 5.25948 33.8411 4.95372 34.1189 4.99652V4.99652ZM32.6188 5.02099C32.3163 5.19222 32.02 5.48575 31.7793 5.44906C31.5879 5.41848 31.4583 4.98429 31.3039 4.73356C31.804 4.42168 32.0694 4.48283 32.6188 5.02099ZM25.9455 14.9462C26.2665 13.9739 26.7974 13.0504 27.6617 12.4267C27.8839 12.2677 28.1123 12.1148 28.3469 11.968C28.4086 11.9313 28.5445 11.8702 28.5877 11.7968C28.6309 11.7173 28.6247 11.6317 28.6309 11.5461C28.6494 11.3626 28.6864 11.0324 28.9272 11.0018C29.0383 10.9896 29.1927 11.1425 29.3161 11.1608C29.4458 11.1791 29.6001 11.1547 29.7297 11.1547C29.8717 11.1547 30.0075 11.1791 30.131 11.118C30.2359 11.0691 30.31 10.9712 30.4088 10.9101C30.5137 10.8489 30.631 10.8734 30.7175 10.8183C30.8162 10.7572 30.8533 10.6227 30.9397 10.5493C31.1434 10.378 31.3903 10.3903 31.6249 10.3352C31.736 10.3047 31.8533 10.2374 31.9706 10.2129C32.162 10.1701 32.3719 10.1946 32.5633 10.1946C32.6744 10.1946 32.7979 10.219 32.909 10.1762C32.9892 10.1457 33.0757 10.0662 33.1621 10.0356C33.3226 9.97442 33.514 9.9255 33.6621 9.87046C33.7979 9.82154 33.8658 9.70535 33.977 9.61362C34.1251 9.49131 34.2054 9.39346 34.3906 9.32619C34.4955 9.2895 34.6066 9.26504 34.7116 9.22835C34.8597 9.17331 35.0141 9.14273 35.1622 9.10604C35.2795 9.07547 35.4153 9.10604 35.5265 9.07547C35.6993 9.02654 35.6993 8.91647 35.8907 8.90424C36.0327 8.89812 36.082 8.88589 36.2179 8.82474C36.4895 8.70243 36.7364 8.80027 37.0204 8.73912C37.15 8.71466 37.2179 8.67185 37.3537 8.66574C37.4896 8.65962 37.5945 8.63516 37.718 8.58624C37.9772 8.48839 38.2118 8.56178 38.4649 8.49451C38.6131 8.4517 38.6933 8.35997 38.8539 8.34774C38.9588 8.34162 39.0576 8.36608 39.1563 8.33551C39.2736 8.29882 39.3724 8.20709 39.5082 8.18874C39.6626 8.16428 39.8416 8.19485 39.9959 8.19485C40.1502 8.19485 40.3354 8.22543 40.4836 8.20097C40.6194 8.17651 40.712 8.07255 40.8478 8.04197C40.9528 8.01751 41.0577 8.03586 41.1565 7.99305C41.28 7.93801 41.3047 7.79736 41.4034 7.7362C41.5763 7.63224 41.6257 7.75455 41.7862 7.80959C41.9714 7.87074 42.1751 7.79124 42.3603 7.74843C42.6875 7.66893 43.0147 7.59555 43.348 7.55274C43.5764 7.52217 43.8048 7.50993 44.0332 7.4977C44.8852 7.46101 45.7433 7.39374 46.5952 7.47936C46.7927 7.4977 46.9717 7.5772 47.1631 7.58943C47.657 7.62613 48.1755 7.55274 48.6694 7.5344C49.1015 7.52217 49.5275 7.51605 49.9596 7.51605H50.4288C51.3116 7.51605 52.1882 7.54663 53.0648 7.58943C53.5833 7.6139 54.1575 7.5772 54.6575 7.7362C55.1267 7.88909 55.5588 7.87686 56.0526 7.87686C56.2193 7.87686 56.386 7.88909 56.5527 7.87686C56.7317 7.87074 56.7996 7.74843 56.9601 7.70563C57.0836 7.67505 57.2503 7.73009 57.3614 7.75455C57.4725 7.77901 57.5898 7.78513 57.7133 7.80959C57.8861 7.84628 57.954 7.96247 58.1022 8.02362C58.2442 8.07866 58.4047 8.01139 58.5467 8.04197C58.6578 8.06643 58.7998 8.14593 58.9109 8.19485C59.0714 8.26212 59.1825 8.41501 59.3615 8.44558C59.6208 8.48839 59.948 8.43947 60.2135 8.43947C60.5345 8.43947 60.8123 8.47005 61.1024 8.33551C61.232 8.27435 61.3617 8.25601 61.5098 8.27435C61.6765 8.2927 61.7444 8.42112 61.9173 8.44558C62.084 8.46393 62.2259 8.42112 62.3988 8.48839C62.5717 8.55566 62.6334 8.59847 62.8124 8.60458C63.1026 8.6107 63.4112 8.57401 63.7014 8.59847C63.831 8.6107 64.01 8.65351 64.0965 8.75747C64.1952 8.87366 64.1829 8.98374 64.3125 9.07547C64.3681 9.11216 64.436 9.11216 64.4977 9.16108C64.5841 9.22223 64.5286 9.25893 64.6582 9.31396C64.7817 9.36289 64.9422 9.32008 65.0657 9.34454C65.1644 9.36289 65.3126 9.44239 65.4237 9.46685C65.5533 9.49743 65.683 9.45462 65.8126 9.47908C66.1275 9.54023 66.4114 9.78485 66.7016 9.90715C66.9485 10.005 67.2078 10.0233 67.43 10.1273C67.6831 10.2435 67.9733 10.2068 68.2449 10.2068C68.5783 10.2068 68.8746 10.1457 69.0598 10.4453C69.282 10.8122 69.5722 10.5982 69.9117 10.7205C69.9919 10.7511 70.0413 10.8061 70.1154 10.8489C70.171 10.8795 70.3068 10.904 70.3438 10.9406C70.4611 11.0446 70.4796 11.2158 70.5784 11.332C70.6957 11.4666 70.8377 11.4971 71.0044 11.5277C71.6649 11.6561 72.1773 12.0353 72.7267 12.4328C73.4613 12.9648 73.9552 13.717 74.2824 14.5242C74.2824 14.5548 74.2824 14.5976 74.2762 14.6221C74.2639 14.6771 74.2268 14.6955 74.2207 14.7566C74.2083 14.8056 74.2268 14.8545 74.2207 14.9034C74.2145 14.9401 74.1836 14.9401 74.1774 14.9707C74.1651 15.0135 74.1774 15.0624 74.1651 15.1113C74.1466 15.1664 74.091 15.2092 74.0725 15.2642C74.054 15.3315 74.0601 15.4049 74.0601 15.4782C74.0601 15.6372 74.0972 15.839 74.0601 15.9858C74.0416 16.0592 74.0108 16.0959 74.0046 16.1754C73.9984 16.2488 74.0108 16.316 73.9922 16.3894C73.9614 16.5117 73.912 16.6402 73.8379 16.738C73.6218 17.0315 73.6157 17.3679 73.6157 17.7287C73.4428 18.1853 73.27 18.6705 73.0971 19.1841V20.6396C72.9243 21.0962 72.8378 21.5528 72.8378 22.0094C72.8378 22.4661 72.7802 22.9512 72.665 23.4649C72.665 23.9215 72.5786 24.4067 72.4057 24.9203V26.3758C72.06 26.9751 72.4057 26.9751 72.06 27.7456C72.06 28.5162 71.8871 28.5162 71.8871 29.2011C71.6279 29.886 71.8871 29.886 71.8871 30.6566C71.7143 31.1702 71.6279 31.6839 71.6279 32.1976C71.6279 32.3016 71.6217 32.3872 71.6155 32.4606C71.9797 32.6807 72.3501 32.8948 72.6897 33.1455C72.8502 33.2617 73.023 33.3901 72.9983 33.6837C72.949 34.283 72.9798 34.9067 72.4798 35.347C72.3501 35.4632 72.1156 35.4693 71.9365 35.5366C71.776 35.5978 71.6217 35.6711 71.3377 35.7873C71.4056 35.5978 71.4241 35.4693 71.4859 35.3715C71.7081 34.9862 71.6958 34.8333 71.3624 34.5276L71.2883 34.4542C71.239 34.5948 71.2019 34.76 71.2019 35.0229C70.9426 35.7078 71.2019 35.7078 71.2019 36.3928C71.0291 36.9064 70.8562 37.4201 70.6834 37.9338V39.3037C70.6834 39.8174 70.5681 40.3025 70.3377 40.7591C70.3377 41.444 70.1648 41.444 70.1648 42.129C70.1648 42.8995 69.9055 42.8995 69.9055 43.67C69.9055 44.0696 69.8191 44.5262 69.6462 45.0399C69.6462 45.4679 69.6462 45.9083 69.5289 46.3241C69.5104 46.3791 69.4919 46.4342 69.4672 46.4831C69.5043 46.5014 69.5351 46.5198 69.5475 46.5504C69.5845 46.6237 69.4981 46.7644 69.4549 46.8745C69.4425 46.8989 69.424 46.9295 69.4055 46.954C69.4117 47.0518 69.4055 47.1558 69.3684 47.2353C69.3561 47.3087 69.3191 47.3576 69.2635 47.3882C69.2265 47.5227 69.2758 47.6817 69.245 47.8224C69.2326 47.8713 69.2141 47.9202 69.2018 47.9752C69.1771 48.1404 69.2141 48.226 69.3129 48.3483C69.3684 48.4217 69.4055 48.5073 69.4672 48.5807C69.5228 48.6357 69.5845 48.6663 69.603 48.7458C69.6339 48.8742 69.5969 49.0699 69.5969 49.2044C69.5969 49.4246 69.6216 49.5836 69.424 49.7181C69.2882 49.8098 69.1153 49.9077 69.0783 50.085C69.0536 50.2073 69.103 50.3297 69.0845 50.452C69.0721 50.5743 68.9734 50.6415 68.9548 50.7638C68.924 50.9779 68.9178 51.2103 68.9178 51.4365C68.9178 51.8585 68.6091 52.3783 68.8684 52.7636C68.9425 52.8798 68.9363 52.9226 68.9363 53.0632C68.9363 53.2528 68.9672 53.4546 68.8931 53.6319C68.8622 53.6992 68.8375 53.7604 68.8252 53.8399C68.8005 53.9805 68.8067 54.1212 68.8067 54.2618C68.8005 54.482 68.7573 54.6899 68.677 54.8917V56.3472C68.677 57.0321 68.4178 56.8608 68.1585 57.5458C68.0906 57.7292 68.2202 58.0472 68.2511 58.2368C68.2758 58.3652 68.2758 58.4936 68.2573 58.6221C68.2449 58.7016 68.1893 58.8116 68.1955 58.8911C68.214 59.0379 68.3931 59.1358 68.4425 59.2825C68.5104 59.4843 68.6153 59.6005 68.4733 59.7901C68.3622 59.9369 68.1955 60.0531 68.0906 60.2182C68.035 60.3099 67.9795 60.4016 67.9424 60.4995C67.8869 60.6463 67.8683 60.7991 67.8436 60.952C67.8313 61.0499 67.8004 61.1416 67.7696 61.2394V62.4686C67.7696 62.9517 67.6399 63.0068 67.4794 63.2392C67.4732 63.3003 67.4609 63.3554 67.4424 63.4226C67.4239 63.5144 67.4239 63.5877 67.4239 63.6795V64.3644C67.4239 64.5356 67.4794 64.7191 67.3436 64.7741C67.3251 64.872 67.2942 64.9882 67.251 65.1288V66.4986C67.251 67.3548 66.9917 67.3548 66.8189 68.0397C66.8189 68.9815 66.5596 68.9815 66.5596 68.0397C66.3003 67.3548 66.5596 67.3548 66.3003 66.4986C66.3003 66.042 66.2139 65.5854 66.041 65.1288C66.041 64.3583 66.3003 64.3583 66.041 63.6734C66.041 62.9884 65.8682 62.9884 65.8682 62.2179C65.8682 61.7613 65.7818 61.2761 65.6089 60.7624C65.6089 60.5668 65.6151 60.3649 65.5904 60.1693C65.5719 59.998 65.5225 59.839 65.4731 59.6739C65.4299 59.5455 65.3558 59.3987 65.3558 59.2581C65.3558 59.1786 65.3867 59.093 65.3682 59.0196C65.3496 58.9401 65.2694 58.9278 65.1953 58.9523C65.183 58.9645 65.1706 58.9706 65.1583 58.9829C65.1583 58.9829 65.1336 59.0073 65.115 59.0196C65.0533 59.0746 64.9113 59.044 64.8311 59.044H64.6582V58.7872C64.8064 58.7321 64.9607 58.6526 65.1212 58.616H65.1397C65.0657 58.1206 64.8126 58.035 64.8126 57.454C64.6397 56.6896 64.8126 56.6896 64.8126 56.0047H64.6397V54.3841C64.4669 54.0417 64.3804 53.6442 64.3804 53.1916C64.3804 52.5312 64.4977 51.8707 64.6582 51.2408C64.8187 50.6171 65.5287 50.3174 65.5101 49.5958C65.5101 49.5224 65.4793 48.5807 65.2756 48.7213C65.6089 48.495 64.9731 47.9814 64.8126 47.8224C64.6397 47.6511 64.1211 47.1374 63.868 46.7155C63.6088 46.2018 63.3495 45.523 63.3495 45.0093V43.6456C63.3495 42.7955 63.2631 42.7955 63.2631 42.1106C63.2631 41.4257 63.2631 41.4257 62.9174 40.7469V39.9825L62.7445 39.7256V39.2119C62.7445 38.6126 62.3988 38.6126 62.3988 37.8482C62.3988 37.0838 62.7445 37.0838 62.3988 36.3133C62.3988 35.714 62.2259 35.714 62.2259 34.9495C62.0531 34.4399 61.9667 33.9568 61.9667 33.5002C61.9667 33.1761 61.8309 32.9743 61.8864 32.6196C61.9481 32.2404 62.0346 31.8429 61.8679 31.476C61.7383 31.1947 61.4481 30.9562 61.4481 30.6015C61.4481 30.3141 61.5963 29.7026 61.2567 29.5864C61.195 29.5619 60.6703 29.7087 60.6703 29.7454V29.2378C60.6703 29.2011 61.1456 29.0299 61.2135 28.9443C61.374 28.7486 61.337 28.5039 61.2876 28.2777C61.2197 27.9719 61.3123 27.9169 61.3308 27.6417C61.3555 27.2809 61.1024 26.9873 61.0962 26.651C61.0901 26.4308 61.195 26.2657 61.1703 26.0395C61.1456 25.8071 60.9975 25.5686 60.9604 25.3301C60.9296 25.165 60.9975 24.8592 60.9296 24.7247C60.7567 24.3822 60.6703 24.1274 60.6703 23.9602V23.2753C60.6703 22.5109 60.4974 22.5109 60.4974 21.7404V20.5479L60.2381 19.863V18.9273C60.2381 18.4707 60.1805 17.9876 60.0653 17.478C60.0653 17.0499 59.5467 16.793 59.2936 16.3711H59.0344C58.7751 16.0286 58.5158 15.7718 58.0898 15.7718H55.1637V16.0286H54.4723L54.213 15.7718H53.003V16.0286L52.6573 15.7718H51.2807C51.2437 15.7718 51.1758 16.1693 51.1511 16.2121C51.0091 16.4689 50.9041 16.4078 50.6942 16.5851C50.7436 16.2916 50.5337 16.4139 50.3794 16.2855C50.2683 16.1937 50.151 15.943 50.0275 15.8757C49.3978 15.5577 48.3484 15.7718 47.657 15.7718H41.5454C41.1133 15.7718 40.9404 16.0286 40.428 16.3711C40.428 16.5423 40.1688 16.5423 40.1688 16.5423V17.056H39.9095C39.9095 17.056 39.6502 17.2272 39.6502 17.4841V18.9334C39.4774 19.6978 39.6502 19.6978 39.4774 20.2971V21.7465C39.2469 22.2561 39.1317 22.7677 39.1317 23.2814C38.9588 24.2171 39.1317 24.2171 38.9588 24.902C38.9588 25.3586 38.9012 25.8417 38.7859 26.3513V27.8007C38.7859 28.4856 38.5267 28.4856 38.2674 29.25C38.2674 29.9349 38.5267 29.9349 38.5267 30.6137C38.3538 31.0704 38.2674 31.5535 38.2674 32.0631C38.0945 32.5727 37.9217 33.0558 37.7488 33.5124C37.7488 34.1973 38.0081 34.1973 37.7488 34.9618V36.6679C37.576 37.3529 37.2303 37.096 37.2303 38.1173V39.481C37.2303 39.9376 37.1439 40.4207 36.971 40.9303C36.971 41.387 36.9134 41.8701 36.7981 42.3797V43.829C36.4524 44.5139 36.7981 44.5139 36.4524 45.1927C36.2672 45.5597 36.3043 46.2262 36.1685 46.6421C35.9401 47.3576 35.5018 47.859 34.9153 48.3238C34.6869 48.5073 34.5017 48.6051 34.4276 48.917C34.3967 49.0393 34.4955 49.4674 34.3844 49.5469C33.9214 49.8527 34.6869 50.4887 34.8042 50.7333C34.8721 50.8678 34.9091 51.0207 35.0017 51.143C35.0696 51.2347 35.1746 51.3142 35.2116 51.4243C35.2548 51.5588 35.1931 51.7178 35.2487 51.8463C35.2733 51.9013 35.3227 51.9502 35.3536 52.0053C35.5697 52.3355 35.3351 52.8553 35.3351 53.2161V55.7723H35.0758V57.4785C34.9029 58.1634 34.5572 58.1634 34.5572 58.9278V60.3772C34.5572 60.8338 34.4996 61.2884 34.3844 61.7409C34.3844 62.5053 34.1251 62.5053 34.1251 63.1046V64.1687C34.1251 64.1687 34.1066 64.2054 34.0942 64.2237C34.0387 64.346 34.0202 64.5234 33.9461 64.6396C33.9152 64.6885 33.7856 64.7741 33.7671 64.823C33.7115 64.9515 33.7856 65.0799 33.7362 65.2144C33.6806 65.2695 33.6312 65.3367 33.5942 65.404C33.5819 65.4835 33.5695 65.5691 33.5572 65.6486C33.514 65.7281 33.4646 65.7954 33.409 65.8627V65.9177C33.3905 66.1501 33.372 66.3641 33.4399 66.5843C33.4707 66.6943 33.4893 66.6515 33.588 66.676C33.5942 66.7188 33.5942 66.7371 33.6127 66.7677C33.6251 66.7922 33.6374 66.7861 33.6498 66.8166C33.6745 66.8778 33.6806 66.9573 33.6806 67.0246C33.6806 67.098 33.6992 67.153 33.7362 67.208C33.7794 67.2631 33.8597 67.3242 33.8597 67.4037C33.8597 67.4282 33.8411 67.4526 33.835 67.4771C33.8103 67.5688 33.835 67.6667 33.7918 67.7584C33.7856 67.7768 33.7671 67.7768 33.7609 67.8073C33.7485 67.8501 33.7609 67.9358 33.7609 67.9847C33.7609 68.107 33.6992 68.1987 33.6992 68.321V68.4923C33.6992 68.5473 33.6806 68.5962 33.6745 68.6513C33.6745 68.6023 33.6745 68.5473 33.6436 68.5045C33.6066 68.4494 33.5325 68.4372 33.4707 68.4066C33.4275 68.3822 33.409 68.3577 33.372 68.321C33.3473 68.3027 33.3102 68.2904 33.2917 68.2599C33.2732 68.2293 33.2855 68.2048 33.2794 68.1743C33.2609 68.1131 33.2238 68.107 33.1744 68.0764C33.1189 68.0397 33.0942 67.9908 33.0571 67.9358C33.0201 67.8807 32.9831 67.8563 32.9398 67.8135L32.7114 67.5872L32.7608 67.5016C32.7299 67.416 32.6991 67.3303 32.6929 67.2325C32.6682 67.0246 32.7299 66.8166 32.6744 66.6148C32.6312 66.462 32.6065 66.3641 32.6065 66.1929C32.6065 66.0339 32.5633 65.9544 32.5262 65.8137C32.4583 65.5263 32.5324 65.1655 32.5201 64.8659C32.5201 64.7925 32.5015 64.7313 32.4892 64.6763V63.7223C32.446 63.6978 32.4336 63.6734 32.3904 63.6428C32.3657 63.6244 32.3287 63.6183 32.3102 63.5816C32.2916 63.551 32.304 63.5266 32.2978 63.496C32.2793 63.4349 32.2423 63.4287 32.1929 63.3982C32.1867 63.3982 32.1867 63.3982 32.1805 63.3982C32.0694 63.2025 31.8348 63.0924 31.7299 62.9028C31.8348 62.7805 31.9027 62.6276 31.9892 62.487V61.9733C31.9892 61.5167 31.9027 61.003 31.7299 60.4322V59.0624C31.7299 58.2918 31.3842 58.2918 31.3842 57.6069C31.3842 56.922 31.2113 56.922 31.2113 56.1515C31.2113 55.7784 31.2051 55.4115 31.2051 55.0446C31.2051 54.9345 31.2237 54.8061 31.199 54.696C31.1928 54.6716 31.1805 54.6349 31.1558 54.6165C30.9767 54.4697 30.9459 54.1334 30.8409 53.8949C30.7483 53.687 30.6866 53.4668 30.6681 53.2406C30.6557 53.051 30.6681 52.8614 30.6866 52.6718C30.7051 52.47 30.7175 52.2743 30.7545 52.0786C30.7668 52.0175 30.7792 51.9563 30.773 51.8952C30.7607 51.7668 30.6372 51.724 30.6125 51.6078C30.5816 51.4793 30.6557 51.3387 30.6125 51.2103C30.6002 51.1675 30.5569 51.1491 30.5323 51.1124C30.5137 51.0757 30.5261 51.0574 30.5199 51.0207C30.5137 50.9595 30.5199 50.9045 30.5199 50.8433V50.4948C30.5199 50.293 30.6804 50.2135 30.594 50.0055C30.4458 49.657 30.4397 49.29 30.4582 48.917C30.4705 48.654 30.5878 48.2137 30.4458 47.9752C30.4026 47.908 30.3471 47.8529 30.3224 47.7734C30.31 47.7245 30.31 47.6756 30.31 47.6205C30.3162 47.4615 30.3162 47.2964 30.3224 47.1374C30.3224 47.0579 30.3224 46.9723 30.2792 46.9051C30.2483 46.85 30.1866 46.8133 30.1619 46.7583C30.1433 46.7155 30.1372 46.6666 30.131 46.6237C30.1063 46.3608 30.0631 46.0978 30.0569 45.8349C30.0507 45.6759 30.0075 45.5169 30.0075 45.3579C30.0075 44.5873 29.7482 44.5873 29.7482 43.9024V42.7038L28.9704 42.9606L28.7111 42.7038V42.5326L29.5754 42.1901V42.0189C29.5754 41.762 29.5754 41.5052 29.2297 40.9915V40.8203L28.9704 40.9915L28.7111 40.8203V40.5634L29.2297 40.3066V39.6217C29.0568 39.1651 28.9704 38.6799 28.9704 38.1662C28.7111 37.3957 28.9704 37.3957 28.9704 36.9676H28.4519L28.7111 36.4539C28.7111 36.2093 28.6864 35.9524 28.7111 35.7078C28.7173 35.6773 28.7297 35.6406 28.7297 35.61C28.7358 35.5305 28.6679 35.4816 28.6432 35.4143C28.6062 35.3042 28.6309 35.133 28.4827 35.1085C28.4333 35.0963 28.3778 35.1085 28.3222 35.1085C28.1988 35.0718 28.1 34.919 28.0136 34.8333L28.2728 34.5765L28.0136 34.0628L27.6925 33.9588C27.6493 34.1178 27.5999 34.2768 27.5506 34.4603C27.1987 34.3258 27.0629 34.1056 27.1925 33.8916C27.2357 33.8182 27.2975 33.7815 27.353 33.757L27.2357 33.6408H28.4457V32.271C28.2728 31.5005 28.0136 31.5005 28.0136 30.7299C28.0136 29.9594 28.0136 29.9594 27.7543 29.2745V27.391H27.2357L27.495 27.0485V24.9937C27.3221 24.48 27.2357 23.9949 27.2357 23.5383C27.1205 23.0817 27.0629 22.5965 27.0629 22.0828C26.7172 21.3979 27.0629 21.3979 26.7172 20.713C26.7172 20.5846 26.6986 20.4623 26.6986 20.3338C26.6986 20.3094 26.711 20.2604 26.6986 20.236C26.6863 20.1932 26.6739 20.2115 26.6554 20.1871C26.6307 20.1443 26.6554 20.077 26.6122 20.0525C26.569 20.0342 26.5134 20.0525 26.4702 20.0525C26.4023 20.0525 26.3344 20.0036 26.2727 19.9853C26.2356 19.973 26.1986 19.9853 26.1677 19.9608C26.1307 19.9486 26.1307 19.8996 26.0998 19.8813C26.0566 19.8507 25.9825 19.8935 25.9393 19.8691C26.0504 19.7773 26.0751 19.6611 26.1369 19.5388C26.1616 19.4838 26.211 19.4349 26.2233 19.3737C26.2356 19.3248 26.211 19.2759 26.2603 19.2453C26.3159 19.2147 26.7233 19.2759 26.7172 19.2453C26.6616 19.0129 26.6307 18.75 26.5443 18.5298C26.5258 18.4748 26.4888 18.432 26.4702 18.3769C26.4208 18.2302 26.427 18.0528 26.39 17.8999C26.3653 17.8021 26.3529 17.7532 26.3036 17.6614C26.2418 17.5575 26.211 17.4596 26.1307 17.3618C26.0134 17.215 26.0134 17.1233 26.0134 16.9337C26.0134 16.7441 26.0196 16.5729 25.9702 16.3955C25.927 16.2365 25.9332 16.0714 25.8899 15.9124C25.8406 15.729 25.8467 15.5577 25.8467 15.3621C25.9393 15.1969 25.9455 15.0685 25.9455 14.9523V14.9462ZM74.6775 38.9184C74.554 39.0285 74.4244 39.1386 74.2886 39.2609C74.0848 39.0591 74.054 38.7961 74.1527 38.5331C74.1774 38.472 74.3873 38.4108 74.4367 38.4475C74.5787 38.5576 74.6837 38.7166 74.8071 38.8572C74.7639 38.8756 74.7207 38.9001 74.6775 38.9184V38.9184ZM73.9675 72.1982C73.8194 71.5071 73.8132 70.9078 74.1466 70.3207C74.7516 70.4981 74.6096 70.9629 74.7022 71.342C74.8565 71.978 74.2021 71.8435 73.9675 72.1982V72.1982ZM74.375 40.0375C74.3009 40.2699 74.3379 40.539 74.2886 40.7836C74.2577 40.9426 74.1589 41.0893 74.0416 41.23C73.7577 40.698 73.8317 40.1659 74.0231 39.6278C74.3812 39.5911 74.4799 39.7073 74.375 40.0375V40.0375ZM73.9305 41.4746C74.3194 42.0005 74.2639 42.2329 73.7391 42.398C73.628 42.0678 73.6959 41.7743 73.9305 41.4746ZM73.8256 43.0096C73.9367 43.2542 74.1157 43.4438 74.0848 43.6089C74.0416 43.8902 73.7762 44.0064 73.4613 44.0369C73.3811 43.67 73.4243 43.3581 73.8256 43.0096ZM73.7021 78.2157C73.7453 78.2585 73.8194 78.2646 73.8749 78.2891H73.8873C74.0046 78.0261 74.2268 77.9405 74.4985 77.9649C74.554 77.9649 74.6096 78.0322 74.659 78.0628C74.6096 78.1117 74.5664 78.1667 74.5108 78.2034C74.412 78.2707 74.1774 78.2034 74.2515 78.4542C74.1836 78.4542 74.1034 78.4786 74.0478 78.4542C73.9799 78.4175 73.9305 78.3441 73.8811 78.2891C73.8811 78.2891 73.877 78.2891 73.8688 78.2891C73.807 78.5581 73.6712 78.711 73.3626 78.6682C73.2823 78.656 73.1959 78.6927 72.9983 78.7294C73.0601 78.5092 73.0539 78.2891 73.1588 78.1851C73.3132 78.0567 73.5354 78.0506 73.7021 78.2218V78.2157ZM72.0723 57.7598C71.8378 57.7292 71.597 58.1023 71.4056 57.7598C71.3501 57.662 71.4303 57.3745 71.4982 57.3562C71.7945 57.2706 71.9365 57.5091 72.0723 57.7537V57.7598ZM71.6464 47.6817C71.8131 47.3576 71.9551 47.0824 72.097 46.8072C72.1341 46.8072 72.1711 46.8072 72.2082 46.8072C72.2637 46.9173 72.3872 47.0518 72.3563 47.1313C72.2637 47.4004 72.1526 47.6939 71.6464 47.6878V47.6817ZM72.5539 78.5459C72.2822 78.8639 72.0847 78.7966 71.8933 78.5031C72.1279 78.2096 72.3255 78.3991 72.5539 78.5459ZM69.5228 75.5494C69.424 75.6411 69.3252 75.739 69.2265 75.8307C69.1832 75.794 69.14 75.7512 69.0968 75.7145C69.1832 75.6044 69.2635 75.4943 69.3499 75.3843C69.4055 75.4332 69.461 75.4882 69.5228 75.5494V75.5494ZM68.9487 77.0721C68.6585 77.0354 68.4733 77.0171 68.2881 76.9926C68.3066 76.8764 68.2819 76.6929 68.3499 76.6563C68.461 76.589 68.6523 76.5584 68.7635 76.6073C68.8499 76.6501 68.8622 76.8458 68.9487 77.0721V77.0721ZM62.9482 62.4625C62.7322 62.4625 62.5284 62.4809 62.3371 62.4503C62.2692 62.4503 62.2198 62.328 62.1642 62.2607C62.2445 62.2179 62.3247 62.1262 62.3926 62.1323C62.905 62.1996 63.3989 62.2118 63.8804 61.9366C64.0347 61.8449 64.3249 61.8938 64.5039 61.9794C64.5841 62.0161 64.5903 62.3157 64.5471 62.4747C64.4915 62.6888 64.3434 62.86 64.0656 62.8356C63.8557 62.8172 63.6458 62.8355 63.4359 62.8233C63.2054 62.8233 63.0429 62.7031 62.9482 62.4625V62.4625ZM63.368 70.1984C63.3248 70.5592 63.0717 70.5164 62.7754 70.492C62.9976 70.0272 63.0779 69.9905 63.368 70.1984ZM63.9853 64.4806C63.9977 64.3705 64.115 64.2054 64.2076 64.1932C64.4669 64.1565 64.8681 64.4928 64.8187 64.6946C64.7879 64.8108 64.6212 64.8964 64.5903 64.9209C64.0841 64.9148 63.9421 64.7925 63.9853 64.4806V64.4806ZM60.3986 60.2182C60.7814 59.9797 61.0036 59.4904 61.5222 59.3865C61.5407 59.4109 61.5592 59.4293 61.5777 59.4538C61.4172 59.5822 61.2444 59.6984 61.0901 59.839C60.8616 60.0469 60.7135 60.2793 60.695 60.6157C60.6826 60.9153 60.411 61.111 60.1764 61.3434C60.0962 60.9031 60.6085 60.6646 60.3986 60.2182V60.2182ZM57.491 72.5957L57.1947 73.4396C57.1515 73.4396 57.1021 73.4396 57.0589 73.4518C56.9972 73.1155 56.9354 72.7791 56.8367 72.2471C57.1824 72.4305 57.3367 72.51 57.491 72.5957C57.491 72.5834 57.4972 72.5712 57.4972 72.5651V72.5834C57.5404 72.5406 57.5898 72.4978 57.6207 72.455C57.8306 72.1676 58.096 72.0636 58.3491 72.3572C58.5899 72.6385 58.3615 72.8586 58.1145 72.9626C57.7627 73.1093 57.4725 73.0543 57.4972 72.5834C57.4972 72.5834 57.4972 72.5834 57.491 72.5957L57.4972 72.5651C57.4972 72.5651 57.491 72.5895 57.491 72.5957V72.5957ZM56.2317 29.6597C56.6391 29.195 57.028 28.7486 57.4231 28.296C57.349 28.1431 57.3367 28.0147 57.596 28.0086C57.6762 28.0086 57.7503 27.8863 57.8491 27.8007C57.917 28.1615 57.7441 28.3572 57.4972 28.5345C57.4046 28.5957 57.3552 28.718 57.275 28.7975C57.1021 28.9809 56.9169 29.1583 56.7255 29.3601C56.7502 29.3907 56.7873 29.4396 56.8552 29.5191C56.6576 29.5619 56.4724 29.6047 56.2317 29.6597ZM56.5897 62.3586C56.4786 62.5848 56.3675 62.8111 56.2317 63.019C56.1885 63.0863 56.0156 63.1474 55.9662 63.1169C55.8921 63.0679 55.8551 62.9395 55.8366 62.8356C55.8242 62.7683 55.886 62.6827 55.8921 62.6093C55.9107 62.2424 56.0403 62.1017 56.3922 62.0895C56.5897 62.0895 56.6947 62.1506 56.5897 62.3586ZM56.9601 20.2849L57.5713 20.0648C57.5281 20.4867 57.312 20.5173 57.0651 20.4684C57.0219 20.4561 56.9972 20.3461 56.9601 20.2849ZM57.0219 38.4659C57.0589 38.4475 57.1453 38.5392 57.2688 38.6249C57.1206 38.7288 57.0404 38.8083 56.9416 38.8389C56.9107 38.8511 56.7811 38.6982 56.7934 38.6799C56.8552 38.5943 56.9293 38.5087 57.0219 38.4659V38.4659ZM56.8243 65.7281C56.8984 65.508 57.1762 65.2878 57.4108 65.2083C57.5342 65.1655 57.7627 65.4285 58.1269 65.6792C57.7256 65.9177 57.5281 66.1134 57.2935 66.1562C57.0219 66.2112 56.7255 66.0216 56.8243 65.7281ZM58.1763 66.303C58.3676 66.0339 58.5528 65.777 58.7627 65.4835L58.2689 65.3612C58.5096 64.45 58.664 64.3889 60.1702 64.768C59.522 65.031 59.2813 65.3 59.2319 65.8321C59.1763 66.4681 58.8553 66.5598 58.1763 66.303V66.303ZM58.9047 25.8499C58.8368 26.0089 58.8183 26.1434 59.0344 26.1801C58.8121 26.49 58.6475 26.6571 58.5405 26.6816C58.5528 26.7794 58.559 26.8773 58.5714 26.9751H58.2936C58.3306 26.8283 58.3615 26.706 58.3862 26.5776C58.1331 26.3024 58.1392 26.2841 58.4602 26.1801C58.2936 25.642 58.7751 26.0028 58.9047 25.8499ZM59.1516 43.7923C59.0776 43.8779 59.0158 43.9574 58.9109 44.0798C58.8183 43.988 58.6516 43.8902 58.664 43.8229C58.6886 43.6884 58.8059 43.5661 58.9171 43.401C59.022 43.5722 59.0837 43.6761 59.1516 43.7923V43.7923ZM54.1266 66.6699C53.9661 66.8839 53.8364 67.0551 53.6698 67.2692C53.6142 67.1836 53.5586 67.1346 53.5586 67.0918C53.5586 66.7861 53.5895 66.4925 54.1266 66.6699ZM52.645 51.0574C52.6697 51.1246 52.7252 51.1246 52.7376 51.2103C52.7499 51.2775 52.7438 51.3631 52.7376 51.4243C52.7314 51.5221 52.6759 51.5405 52.6388 51.6261C52.5771 51.7545 52.6388 51.8646 52.6759 51.9991C52.7006 52.0848 52.6944 52.152 52.6944 52.2376C52.6944 52.3049 52.7191 52.3477 52.7314 52.4089C52.7376 52.4394 52.7252 52.4761 52.7438 52.5067C52.7623 52.5312 52.7993 52.5312 52.8178 52.5556C52.8425 52.5984 52.8302 52.6535 52.8302 52.6963C52.8364 52.788 52.8549 52.8736 52.8487 52.9654C52.8364 53.1672 52.824 53.369 52.824 53.5769C52.824 54.3597 52.7808 54.4514 52.6326 54.6593C52.4783 54.8672 51.9721 54.8672 51.9721 54.8672H51.7313C51.6141 54.8672 51.5338 54.8244 51.4227 54.7939C51.3116 54.7633 51.2498 54.8061 51.1572 54.8672C51.0461 54.9467 50.9535 54.9529 50.8177 54.9529H50.3794C50.3238 54.9529 50.2621 54.9529 50.2065 54.9529C50.0954 54.9529 50.0831 55.0079 49.9967 55.0629C49.9349 55.0996 49.867 55.0935 49.8053 55.1302C49.7312 55.1669 49.6756 55.2097 49.583 55.2219C49.4657 55.2342 49.3608 55.2586 49.2373 55.2647C49.0892 55.2647 49.0398 55.1975 48.9348 55.1057C48.8484 55.0324 48.762 54.9345 48.657 54.8978C48.5089 54.8428 48.3299 54.8795 48.1817 54.8795H47.6693C47.6693 54.8795 47.1631 54.8795 47.0088 54.6716C46.8544 54.4636 46.8174 54.3719 46.8174 53.5891V50.7394C46.8174 50.403 46.7742 50.0361 46.8174 49.6998C46.8359 49.5713 46.8606 49.4613 46.8606 49.3267V48.8008C46.8606 48.7458 46.8668 48.6846 46.8606 48.6296C46.8483 48.5379 46.8236 48.5807 46.7804 48.5073C46.7557 48.4584 46.7557 48.3789 46.731 48.3238C46.7063 48.2627 46.6692 48.2015 46.6446 48.1465C46.6075 48.0547 46.5828 47.9814 46.6137 47.8774C46.6199 47.8468 46.6631 47.7734 46.6754 47.7367C46.7125 47.6695 46.7125 47.6756 46.731 47.6022C46.7865 47.3759 46.768 47.1558 46.7927 46.9295C46.8421 46.4097 46.8174 45.8899 46.8174 45.364C46.8174 44.5017 46.9347 43.6333 47.0582 42.7833C47.1878 41.8782 47.3113 40.9365 47.5705 40.062C47.5891 39.9886 47.5952 39.9397 47.5952 39.8663C47.5952 39.744 47.7002 39.7562 47.7311 39.6522C47.7496 39.5972 47.7249 39.4994 47.7249 39.4382V38.9673C47.7249 38.9245 47.7434 38.8511 47.7187 38.8144C47.694 38.7777 47.6446 38.7839 47.6199 38.7533C47.5952 38.7288 47.5705 38.6493 47.5644 38.6126C47.5273 38.4597 47.6138 38.3313 47.6755 38.1968C47.7125 38.1173 47.7557 38.05 47.8051 37.9827C47.8422 37.9277 47.8422 37.9032 47.8607 37.8421C47.8669 37.8115 47.8977 37.8054 47.9039 37.7748C47.9101 37.7381 47.8916 37.7014 47.9039 37.6709C47.9224 37.6281 47.9718 37.6036 47.9965 37.5608C48.0397 37.4996 48.0521 37.4201 48.0953 37.359C48.1323 37.3039 48.2064 37.255 48.2311 37.1939C48.2558 37.1083 48.1879 37.041 48.1755 36.9554C48.1632 36.8636 48.2064 36.7658 48.2187 36.6802C48.262 36.4723 48.299 36.2704 48.3422 36.0625C48.4163 35.6895 48.4904 35.3165 48.5706 34.9434C48.6509 34.552 48.7311 34.1545 48.8114 33.7632C48.8114 33.7632 48.8052 33.647 48.9287 33.3779C48.9966 33.2311 49.1818 33.1272 49.1818 33.1272H50.4782C50.4782 33.1272 50.6634 33.2311 50.7313 33.3779C50.8486 33.647 50.8486 33.7632 50.8486 33.7632C50.8424 33.9344 50.9226 34.1423 50.9597 34.3074C51.0585 34.7844 51.1511 35.2614 51.2498 35.7384C51.2683 35.8424 51.2498 36.0136 51.3486 36.0748C51.4103 36.1115 51.4844 36.1053 51.54 36.1359C51.5894 36.1665 51.6387 36.2154 51.6943 36.2338C51.7437 36.246 51.8425 36.2093 51.8795 36.2338C51.9104 36.2643 51.8857 36.4356 51.8857 36.4845C51.8857 36.619 51.8919 36.6557 51.8054 36.7597C51.6881 36.9003 51.6387 37.0899 51.6696 37.2795C51.6881 37.3712 51.7128 37.4324 51.7128 37.5363C51.7128 37.6219 51.6881 37.7504 51.7128 37.836C51.7375 37.9277 51.8548 37.9461 51.8857 38.0561C51.9104 38.1356 51.8857 38.2457 51.8857 38.3313C51.8857 38.4169 51.9042 38.5209 51.861 38.5882C51.8301 38.6371 51.8054 38.631 51.7993 38.6921C51.7931 38.7472 51.7993 38.8206 51.7993 38.8756C51.7993 38.9673 51.7746 39.1019 51.8054 39.1875C51.8239 39.2425 51.8857 39.2792 51.9104 39.3342C51.9351 39.3893 51.9289 39.4321 51.9289 39.4932C51.9289 39.5972 51.9783 39.6522 52.0277 39.7379C52.0462 39.7684 52.0832 39.8051 52.0956 39.8296C52.1141 39.8785 52.0956 39.9213 52.1017 39.9702C52.1079 40.0314 52.1388 40.0803 52.1511 40.1415C52.1573 40.1904 52.1326 40.2454 52.145 40.2944C52.1697 40.38 52.2623 40.4534 52.2808 40.5512C52.2993 40.6613 52.2808 40.8019 52.2808 40.912C52.2808 41.1444 52.3734 41.3584 52.4104 41.5908C52.4598 41.8599 52.503 42.129 52.5462 42.4041C52.6326 42.979 52.7129 43.5538 52.7746 44.1348C52.8178 44.5445 52.8487 44.9543 52.8487 45.3701V47.4004C52.8487 48.0792 52.9043 48.7825 52.8302 49.4613C52.8117 49.6203 52.8796 49.7854 52.8919 49.9444C52.9043 50.1278 52.8796 50.3113 52.7932 50.4764C52.7561 50.5437 52.787 50.611 52.7561 50.6782C52.7376 50.721 52.6944 50.7394 52.6759 50.7883C52.6326 50.8066 52.6265 50.9962 52.645 51.0513V51.0574ZM47.6199 20.713C47.6817 20.713 47.7804 20.7925 47.7866 20.8353C47.7928 20.9576 47.7619 21.0921 47.7187 21.2083C47.7125 21.2206 47.5582 21.2083 47.4965 21.1778C47.3915 21.1227 47.1816 21.1227 47.2927 20.8964C47.3051 20.872 47.1569 20.7741 47.0458 20.6824C47.2742 20.6946 47.4471 20.6885 47.6199 20.713V20.713ZM47.1446 18.3219H47.4903C47.4779 18.3769 47.4841 18.4564 47.4533 18.4931C47.3113 18.6276 47.2248 18.5298 47.1446 18.3219ZM50.4041 31.9163C50.435 31.8735 50.509 31.8001 50.5399 31.8124C50.7066 31.8735 50.8671 31.9591 51.0276 32.0325C51.0091 32.0875 50.9844 32.1426 50.9659 32.1915C50.793 32.1365 50.614 32.0814 50.4473 32.0203C50.4164 32.0203 50.3917 31.9347 50.4041 31.9163V31.9163ZM52.6697 37.7504C52.8117 37.7076 52.9413 37.6709 53.071 37.6281C53.0833 37.6464 53.1018 37.6586 53.1142 37.677C53.0463 37.7809 52.9784 37.8849 52.8919 38.0133C52.8055 37.9155 52.7438 37.8421 52.6697 37.7504V37.7504ZM52.6944 27.4643H52.9475C52.9784 27.55 53.0092 27.6417 53.0524 27.7701C52.9413 27.7946 52.8425 27.8129 52.7314 27.8313C52.7191 27.6906 52.7067 27.5805 52.6944 27.4643ZM46.0766 37.1511C46.089 37.1816 46.021 37.2978 45.9964 37.2917C45.8791 37.2917 45.7556 37.255 45.6445 37.2183C45.6321 37.2183 45.6445 37.1144 45.6568 37.0593C45.6877 36.9187 45.9099 36.8392 45.7865 36.6496C45.7803 36.6496 45.8297 36.5884 45.8544 36.5884C46.0519 36.5884 46.2433 36.5884 46.4408 36.5884C46.4532 36.6068 46.4655 36.6251 46.4779 36.6496C46.3976 36.723 46.3112 36.7964 46.2309 36.8698C46.1383 36.937 46.0025 36.9798 46.0766 37.1511V37.1511ZM43.3542 67.4954C43.2678 67.4588 43.169 67.1958 43.2122 67.1346C43.2986 67.0246 43.5147 66.8961 43.6135 66.939C43.8357 67.0246 44.0826 67.1591 44.0271 67.5994C43.7925 67.5749 43.5517 67.5749 43.3542 67.4954ZM43.9653 77.8916C43.811 78.1239 43.6505 78.3502 43.4962 78.5826C43.3233 78.1239 43.2369 77.7264 43.9653 77.8916ZM43.2801 51.0023C43.1381 51.2836 43.0517 51.5833 42.8603 51.779C42.7492 51.8891 42.4591 51.8279 42.2492 51.8463C42.2677 51.7178 42.2924 51.5894 42.3171 51.461C42.3232 51.4426 42.3418 51.4243 42.3541 51.3998C42.527 51.0085 42.8356 50.876 43.2801 51.0023ZM43.4036 39.6645C43.527 39.7684 43.6443 39.8907 43.7925 39.9702C43.9653 40.0681 43.916 40.1598 43.811 40.2454C43.7431 40.3005 43.6629 40.3433 43.5826 40.3616C43.3727 40.4105 43.1566 40.4411 42.9467 40.4839C42.7616 40.0864 42.8171 39.9947 43.4036 39.6645V39.6645ZM43.9468 54.1456C44.0765 53.6809 44.2802 53.6197 44.6814 53.9683C44.3543 54.0539 44.1505 54.1028 43.9468 54.1456ZM44.6814 67.1102C44.8358 67.153 44.9839 67.2203 45.1321 67.2814L45.0765 67.4465C44.916 67.4098 44.7494 67.3731 44.5888 67.3364C44.6135 67.2569 44.6691 67.1041 44.6814 67.1102V67.1102ZM40.8355 42.7283C40.8972 42.4898 40.9034 42.2818 41.0022 42.1351C41.0762 42.0311 41.2738 41.9944 41.4219 41.97C41.4837 41.9577 41.5948 42.0433 41.6318 42.1167C41.8356 42.4592 41.8294 42.5265 41.4466 42.606C41.2614 42.6426 41.0639 42.6793 40.8355 42.7283V42.7283ZM41.3787 50.8189C41.3479 50.9656 41.3293 51.1491 41.2306 51.2347C41.1256 51.3203 40.9404 51.302 40.7676 51.3326C40.6997 50.9534 40.9343 50.8311 41.1565 50.721C41.2059 50.6905 41.3787 50.7944 41.3787 50.8189ZM41.6874 20.1015C41.6257 20.1504 41.5022 20.1259 41.4034 20.1381C41.3973 20.1565 41.3911 20.1687 41.3849 20.1871C41.1627 20.1076 40.9096 20.0586 40.7182 19.9363C40.533 19.8201 40.57 19.6673 40.7799 19.5878C40.9404 19.5266 41.1195 19.5083 41.2923 19.4716C41.3911 19.4471 41.5022 19.4471 41.5886 19.3921C41.7615 19.282 41.9035 19.3921 42.0454 19.441C42.0887 19.4593 42.138 19.6183 42.1072 19.6611C41.9775 19.8201 41.8417 19.973 41.6874 20.1015V20.1015ZM42.0208 37.096C42.0701 37.1633 42.1442 37.2183 42.1689 37.2917C42.1813 37.3284 42.0948 37.3896 42.0146 37.4935C41.9405 37.3651 41.8788 37.2978 41.8664 37.2183C41.8664 37.1878 41.9652 37.1388 42.0208 37.096V37.096ZM41.3787 17.9122C41.28 17.9122 41.175 17.8938 41.0824 17.8571C41.0083 17.8265 40.9589 17.7593 40.8972 17.7042C40.9775 17.6675 41.0515 17.6186 41.1318 17.588C41.1688 17.5758 41.2182 17.588 41.2676 17.6003C41.3293 17.3618 41.5207 17.27 41.7244 17.2945C41.9899 17.3312 42.2121 17.4657 42.1689 17.851C41.922 17.8755 41.6504 17.8999 41.3787 17.9122V17.9122ZM40.0391 80.4906C39.9095 80.937 39.8231 80.9615 39.4465 80.6863C39.6564 80.619 39.8045 80.564 40.0391 80.4906ZM39.3909 59.411C39.2922 59.5394 39.1255 59.6189 38.9526 59.7473C38.7921 59.625 38.6254 59.5577 38.5699 59.4354C38.5143 59.3131 38.8353 59.0257 38.965 59.0257C39.1193 59.0257 39.4527 59.3253 39.3909 59.411V59.411ZM37.2735 61.6002C37.1253 61.7287 37.0019 61.9182 36.829 61.9733C36.687 62.0161 36.4895 61.8999 36.1376 61.8021C36.4154 61.5819 36.5574 61.3801 36.7179 61.3679C36.8969 61.3495 37.0883 61.5146 37.2735 61.6002ZM34.4955 76.7663C34.5387 76.7235 34.6807 76.7113 34.7054 76.7419C34.761 76.8091 34.7671 76.9131 34.8042 77.0354C34.6869 77.0354 34.6437 77.0476 34.5943 77.0476C34.5387 77.0476 34.4832 77.0476 34.3535 77.0354C34.4091 76.9253 34.4338 76.8275 34.4955 76.7663V76.7663ZM33.7485 71.2442C34.051 71.1891 34.2794 71.128 34.514 71.1157C34.6005 71.1157 34.6869 71.2136 34.7733 71.2625C34.7054 71.3481 34.656 71.501 34.5758 71.5132C34.298 71.556 34.0016 71.5805 33.7485 71.2442ZM34.5819 70.8283C34.4214 70.7121 34.2733 70.5898 34.051 70.4125C34.2548 70.2657 34.4276 70.1189 34.619 70.0333C34.6869 70.0027 34.8844 70.1067 34.9091 70.1862C34.9585 70.3452 34.9647 70.5348 34.9276 70.6999C34.8906 70.8711 34.7548 70.9567 34.5819 70.8283V70.8283ZM34.835 61.4168C35.1437 60.8481 35.4956 60.9153 35.9894 61.111C35.6746 61.5513 35.3721 61.7042 34.835 61.4168ZM32.6497 75.9041C32.662 76.1854 32.5077 76.2526 32.304 76.2037C32.2237 76.1854 32.1805 76.0386 32.0818 75.9041H32.6497ZM28.1741 46.1284C28.0753 46.2324 27.8839 46.2507 27.7358 46.3119C27.7172 46.2752 27.6987 46.2324 27.6802 46.1957C27.7543 46.0183 28.0444 45.8593 27.7049 45.6392C27.7296 45.6147 27.7543 45.5902 27.7851 45.5658C27.9395 45.6147 28.137 45.6331 28.242 45.737C28.2975 45.7982 28.2543 46.0489 28.1741 46.1284ZM28.242 57.4724C28.2173 57.5213 28.1988 57.5763 28.1741 57.6253C28.0012 57.5886 27.8222 57.5825 27.6679 57.503C27.6185 57.4785 27.6617 57.2828 27.6617 57.1666C27.6987 57.1544 27.7419 57.1422 27.779 57.1238L28.242 57.4724ZM24.2972 49.0026C24.4763 48.9782 24.6429 49.0148 24.6491 49.3512C24.4577 49.2839 24.3158 49.235 24.1676 49.1861C24.2046 49.1188 24.2417 49.0087 24.2972 49.0026ZM24.3158 69.7581C24.0873 70.0578 24.0009 70.0578 23.5996 69.7704C23.7293 69.5441 23.9268 69.538 24.3158 69.7581ZM23.896 17.7103C23.896 17.7715 23.9577 17.8327 23.97 17.8999C23.9824 17.9672 23.9639 18.0345 23.9577 18.1201C23.5132 18.0222 23.5873 17.6308 23.4083 17.3923C23.8836 17.3006 23.8774 17.3006 23.896 17.7103V17.7103ZM22.9947 15.0318C23.0317 15.0624 23.0996 15.0563 23.1552 15.0685C23.1675 15.1052 23.1737 15.1419 23.186 15.1786C22.9515 15.2703 22.7169 15.3743 22.4761 15.4538C22.4576 15.4538 22.3897 15.3254 22.3465 15.2581C22.5625 15.1908 22.6613 14.7811 22.9947 15.0318V15.0318ZM22.3403 17.5391C22.4823 17.3985 22.7724 17.3557 22.9947 17.3618C23.1737 17.3618 23.1922 17.6308 23.0194 17.7593C22.8835 17.8632 22.7292 17.9366 22.5625 18.0406C22.3465 17.9122 22.1613 17.7165 22.3403 17.5391ZM22.365 30.4486C22.365 30.3202 22.4514 30.0878 22.507 30.0878C22.6675 30.0878 22.9082 30.1245 22.9761 30.2285C23.3095 30.7605 23.2107 31.3537 23.1181 31.9285C23.0996 32.0386 22.9206 32.1181 22.7848 32.2343C22.5502 32.0814 22.4144 31.8735 22.4267 31.5555C22.4391 31.1947 22.3712 30.8217 22.365 30.4486V30.4486ZM23.291 33.2984C23.0811 33.3962 22.8959 33.4818 22.7107 33.5675C22.6551 33.3962 22.5564 33.2189 22.544 33.0415C22.5193 32.7113 22.7909 32.6257 22.9947 32.8887C23.0811 32.9926 23.149 33.1027 23.291 33.2984ZM22.4823 35.9035C22.507 35.6773 22.7107 35.6834 22.8835 35.8301C23.3959 36.2643 23.2293 36.937 22.4699 37.2673C22.4699 36.7841 22.4329 36.3438 22.4823 35.9035V35.9035ZM23.291 79.0902C23.0687 79.1207 22.8218 79.1697 22.7169 78.8272C22.9391 78.7477 23.1305 78.4909 23.3219 78.8027C23.3651 78.87 23.3157 79.084 23.291 79.0902V79.0902ZM23.4762 57.0688C23.9639 57.2706 24.0194 57.3684 23.7787 57.6375C23.3774 57.4296 23.3095 57.3073 23.4762 57.0688ZM24.3158 71.8435C24.0194 71.8068 23.7046 71.8435 23.5009 71.5622C23.5071 71.5194 23.5194 71.4827 23.5256 71.4399C24.0935 71.5194 24.6553 71.5989 25.2232 71.6784L26.1492 71.8068C26.2233 72.0147 26.1616 72.1248 25.927 72.0881C25.3899 72.0086 24.8528 71.9107 24.3158 71.8435V71.8435ZM25.1368 74.1612C24.8652 74.1245 24.7602 74.0205 24.8281 73.6658C25.0319 73.7209 25.1985 73.7759 25.3714 73.8065C25.7356 73.8676 26.0998 73.8982 26.4579 73.9716C26.7048 74.0205 26.9456 74.1 27.2728 74.1918C26.9085 74.5403 26.5752 74.4058 26.2789 74.3691C25.9023 74.3324 25.5257 74.2101 25.1368 74.1612ZM29.2853 91.7367C28.9951 91.6511 28.7482 91.6083 28.5445 91.4982C28.4025 91.4248 28.2234 91.2597 28.2173 91.1313C28.2111 90.9784 28.3593 90.795 28.4827 90.6665C28.5383 90.6115 28.7111 90.6176 28.8037 90.6543C29.0754 90.7644 29.4211 90.7888 29.4704 91.1863C29.5075 91.4371 29.5198 91.645 29.2853 91.7367V91.7367ZM66.1769 94.2807C65.8558 94.1278 65.7385 93.449 66.0781 93.0087C66.1954 93.2289 66.3065 93.449 66.4238 93.6692C66.5966 93.9749 66.3065 94.0972 66.1769 94.2807ZM66.4732 91.4004C66.2509 91.4004 65.9917 91.4004 65.9423 91.0946C66.288 90.9173 66.6152 90.8806 67.0102 91.2536C66.7818 91.3209 66.6275 91.4004 66.4732 91.4004ZM68.9301 92.1036C68.603 92.3666 68.2881 92.6785 67.7943 92.5745C67.751 92.5745 67.6461 92.6785 67.6337 92.7458C67.5905 93.0515 67.356 93.1004 67.1028 93.1799C66.967 92.8986 67.0411 92.7213 67.2695 92.5929C67.7078 92.3483 68.14 92.1036 68.5783 91.8651C68.6523 91.8223 68.7511 91.7979 68.8314 91.7979C68.8993 91.7979 69.0042 91.8529 69.0166 91.8957C69.0351 91.963 68.9857 92.0608 68.9301 92.1036V92.1036ZM70.3438 91.382C70.1463 91.4799 69.9364 91.5594 69.6771 91.6633C69.7018 91.168 69.9981 90.9723 70.313 91.1558C70.3562 91.1741 70.3685 91.3698 70.3438 91.382ZM72.7452 87.034C71.1093 88.2082 69.2018 88.9848 67.2942 89.5963C66.288 89.9205 65.2323 90.1284 64.2323 90.4464C64.01 90.5198 63.7816 90.532 63.5532 90.587C63.3433 90.636 63.1211 90.7216 62.905 90.7338C62.8062 90.7338 62.6766 90.7032 62.5778 90.7338C62.4482 90.7583 62.3865 90.8745 62.2568 90.905C62.1704 90.905 62.0901 90.8928 62.0037 90.8928C61.9296 90.8928 61.8679 90.905 61.8185 90.9601C61.7197 90.9845 61.621 90.9784 61.516 90.9784H60.2011C59.9727 90.9784 59.7443 90.954 59.5529 91.0396C59.3554 91.1252 59.1393 91.2719 58.9171 91.3086C58.701 91.3392 58.4911 91.3698 58.2689 91.4004C58.1392 91.4187 57.9725 91.4615 57.8553 91.5166C57.738 91.5716 57.6639 91.6756 57.5342 91.7061C57.454 91.7061 57.3799 91.6939 57.2997 91.6939C57.2318 91.6939 57.1947 91.7184 57.1824 91.7795C57.0527 91.8529 57.0342 91.8407 56.8737 91.859C56.6206 91.8835 56.5589 92.1159 56.4477 92.3299C56.3119 92.5929 56.0712 92.5073 55.7995 92.5073C55.5279 92.5073 55.4168 92.4644 55.2378 92.2688C54.9538 91.9569 54.534 91.8835 54.1328 91.8713C52.9043 91.8223 51.6634 91.9691 50.4288 91.9691H49.9596C49.1262 91.9691 48.2866 91.9446 47.4533 91.9018C46.7248 91.8713 45.9964 91.8223 45.2679 91.7673C44.8296 91.7367 44.3728 91.6572 43.9406 91.6878C43.2863 91.7367 42.6134 91.7 41.9528 91.7C41.817 91.7 41.6627 91.7184 41.5269 91.7C41.4158 91.6878 41.354 91.6389 41.2491 91.6144C41.0207 91.5594 40.7984 91.5349 40.5577 91.5349C40.2614 91.5349 39.9589 91.5471 39.6687 91.5349C39.5267 91.5349 39.4156 91.486 39.2798 91.4493C39.2119 91.431 39.1687 91.4371 39.1008 91.4126C38.9711 91.3698 38.9897 91.3025 38.8168 91.2781C38.539 91.2414 38.3106 91.2169 38.0328 91.1435C37.86 91.0946 37.6871 91.0579 37.5143 91.0029C37.3044 90.9417 37.1253 90.8806 36.9401 90.7766C36.7488 90.6665 36.5018 90.5503 36.2919 90.4892C36.0944 90.4341 35.8845 90.428 35.6808 90.3669C35.5388 90.3241 35.4339 90.2507 35.2857 90.2446C35.0264 90.2262 34.835 90.2323 34.5943 90.1039C34.335 89.9694 34.1251 89.8899 33.8226 89.8471C33.693 89.8287 33.4954 89.8043 33.372 89.8348C33.23 89.8654 33.2547 89.8593 33.2423 90C33.2053 90.3546 33.4707 90.159 33.6559 90.2385C33.9646 90.3791 33.4707 91.1496 33.1806 91.0334C32.9398 90.9356 32.8349 90.7216 32.8349 90.4892C32.8349 90.2813 32.7485 90.1895 32.6497 90.0061C32.5818 89.8777 32.4583 89.7859 32.4028 89.6514C32.3596 89.5474 32.3596 89.4373 32.3102 89.3334C32.2237 89.1499 32.0941 89.0398 31.8904 89.0154C31.6805 88.9909 31.4891 89.0154 31.2854 88.9481C30.0137 88.5323 28.7297 87.8107 27.6493 87.034C26.4764 86.1901 25.9208 84.8019 25.6615 83.4932H27.8345V83.322H28.3531V83.4932H29.3038L29.6495 83.322H30.0816C30.0816 83.322 30.0693 83.5849 30.094 83.6278C30.1063 83.6522 30.1433 83.7011 30.1742 83.7073C30.1866 83.7073 30.2112 83.7073 30.2298 83.7073C30.2421 83.7073 30.2545 83.7195 30.273 83.7256C30.3656 83.7439 30.489 83.744 30.5755 83.7011C30.8471 83.5788 31.1619 83.4932 31.4644 83.4932H32.5015L32.5694 83.4259V83.2119L32.5509 83.2364C32.5509 83.1874 32.5571 83.1691 32.5694 83.1508V83.0651C32.5694 83.0651 32.6373 83.0651 32.6682 83.0774C32.7361 83.0896 32.804 83.1141 32.8534 83.163C32.8966 83.1997 32.9337 83.2547 32.9831 83.2853C33.0324 83.3159 33.0942 83.3159 33.1497 83.3159C33.5819 83.3159 34.0325 83.218 34.4585 83.1202C34.7918 83.0468 35.0264 82.8022 35.3227 82.7288C35.5388 82.6738 35.6129 82.8144 35.8475 82.9612C36.1685 83.1691 36.5574 83.0713 36.9093 83.1446C37.2179 83.2119 37.4525 83.3281 37.792 83.3281C38.2242 83.3281 38.6316 83.3648 39.0637 83.3831C39.3539 83.3954 39.644 83.322 39.9218 83.2486C39.965 83.2364 40.0083 83.2241 40.0391 83.1997C40.0762 83.1691 40.0885 83.1263 40.1194 83.0896C40.2305 82.949 40.4466 82.9979 40.6132 83.0468C40.9281 83.1324 41.2429 83.1018 41.5578 83.163C41.8356 83.218 42.0516 83.3281 42.3541 83.3281C42.8727 83.3281 43.0455 82.8144 43.6443 82.5637C43.9036 82.3068 44.1629 81.9644 44.1629 81.4568C44.1629 81.2 44.2987 80.9248 44.2987 80.6496C44.2987 80.3071 44.3172 80.0014 44.3913 79.6528C44.5456 78.8945 44.7679 78.1362 44.7679 77.3595V75.9163C44.9407 75.4067 45.0271 74.9236 45.0271 74.467C45.0271 73.782 45.2864 73.782 45.2864 73.1032C45.5457 72.3388 45.2864 72.3388 45.2864 71.5683C45.2864 71.0607 44.9654 71.2747 44.7123 70.9262C45.0457 70.7366 45.1568 70.6265 45.5457 70.6265V70.1128C45.805 69.6847 45.805 69.1772 46.2371 68.9203C46.5828 68.4923 47.0088 68.4923 47.4409 68.4923H52.3487C52.6944 68.4923 53.2068 68.6635 53.7253 68.9203L53.9846 69.1772C53.9846 69.434 54.2439 69.9416 54.2439 70.1128C54.2439 70.8772 54.5032 70.8772 54.5032 71.5622C54.7624 72.3266 54.5032 72.3266 54.7624 73.0971V74.4608C54.9353 74.9175 55.0217 75.4006 55.0217 75.9102V77.3595C55.1884 77.7754 55.0526 78.3624 55.2686 78.7294C55.3304 78.8394 55.5403 78.7905 55.5711 78.8761C55.6267 79.0045 55.5279 79.1146 55.5218 79.2369C55.4847 79.7384 55.6267 80.2582 55.6452 80.7291C55.6514 80.8269 55.6082 80.9737 55.6143 81.1021C55.6205 81.2733 55.7131 81.4752 55.7131 81.6219C55.7131 81.9644 55.886 82.3068 56.2317 82.8144C56.4663 83.163 57.4972 83.0774 57.8738 83.1569C58.4541 83.2792 59.1084 83.64 59.7011 83.4137C59.9048 83.3342 59.9171 83.1569 60.1826 83.1874C60.3678 83.2058 60.4789 83.3587 60.695 83.3831C61.053 83.4198 61.4481 83.3036 61.8185 83.3036C62.1148 83.3036 62.9112 83.5483 63.1581 83.4259C63.331 83.3342 63.2137 82.8633 63.3742 82.8144C63.3742 82.8144 64.1458 82.5576 64.152 82.5576C64.4668 82.4536 64.7385 83.108 64.9792 83.1569C65.1212 83.1875 65.4361 83.0713 65.6027 83.0713C65.7447 83.0713 65.8805 83.0713 66.0225 83.0713V83.5972C66.0225 83.5972 66.0287 83.5972 66.0349 83.5972C66.1213 83.6216 66.2139 83.6278 66.3003 83.6155C66.4176 83.6033 66.5287 83.5605 66.6398 83.5421C66.6707 83.5421 66.7016 83.5421 66.7324 83.5421C66.8189 83.5238 66.8621 83.4993 66.9176 83.4321C66.9547 83.377 66.9917 83.2914 67.0535 83.2608C67.0658 83.2608 67.0782 83.2608 67.0905 83.2486C67.1028 83.2364 67.1028 83.218 67.109 83.1997C67.1214 83.1752 67.1461 83.1569 67.1522 83.1202C67.1584 83.0713 67.1275 83.0774 67.1028 83.059C67.0658 83.0346 67.072 83.0162 67.072 82.9734C67.2448 82.9 67.3992 82.7838 67.5103 82.5698C67.5103 82.5943 67.5165 82.6187 67.5165 82.6371C67.5165 82.686 67.5103 82.7349 67.5041 82.79C67.4856 82.9673 67.4979 83.1446 67.4979 83.322C67.4979 83.322 67.751 83.4932 67.7572 83.4932C67.819 83.536 67.9239 83.5299 67.998 83.536C68.0535 83.536 68.1091 83.536 68.1585 83.536C68.1893 83.536 68.2202 83.536 68.2511 83.5238C68.3005 83.5116 68.3437 83.4871 68.3931 83.481C68.461 83.4688 68.7079 83.5116 68.7388 83.4137C68.7573 83.3648 68.7388 83.2731 68.7388 83.218C68.7388 83.1569 68.7388 83.1202 68.7573 83.0651C68.7882 82.9551 68.9363 82.8939 69.0413 82.8878C69.14 82.8756 69.2882 82.9673 69.3005 83.0774C69.3067 83.1263 69.2635 83.2486 69.3067 83.2792C69.3252 83.2914 69.387 83.2792 69.4117 83.2792C69.4302 83.2792 69.4487 83.3036 69.4734 83.3098C69.4919 83.3098 69.5166 83.3098 69.5351 83.3098C69.5598 83.322 69.5598 83.3465 69.5783 83.3648C69.5907 83.3648 69.6092 83.3648 69.6215 83.377C69.6524 83.3954 69.6771 83.4259 69.7142 83.4443C69.7512 83.4688 69.7882 83.4932 69.8314 83.5116C69.887 83.536 69.9117 83.5238 69.9611 83.4993C70.0537 83.4626 70.1648 83.4321 70.2636 83.4382C70.3315 83.4382 70.3994 83.4626 70.4611 83.4749C70.5105 83.4749 70.5537 83.4871 70.6031 83.4871C70.8933 83.4871 71.1896 83.4871 71.4859 83.4871H73.8194V82.7166C73.8194 82.7166 74.3318 82.1234 74.3379 82.1173C74.4614 81.9766 74.554 81.7381 74.7454 81.6831C74.8256 81.6586 74.8812 81.6953 74.9429 81.7381C74.8689 83.3403 74.4676 85.7804 72.7452 87.0218V87.034ZM75.5356 32.3199C75.4306 32.7358 75.4615 33.1822 75.443 33.6164C75.4306 33.8182 75.3874 33.9833 75.1837 33.9833C75.2825 34.1423 75.4862 34.3258 75.48 34.497C75.4738 34.6927 75.2701 34.8761 75.1775 35.078C75.1034 35.2553 75.0602 35.451 75.017 35.6406C74.9738 35.824 74.9429 36.0136 74.8997 36.2399C74.8935 36.2399 74.9861 36.2704 74.98 36.2827C74.8071 36.8881 74.6219 37.4935 74.375 38.0867C74.1527 37.096 74.5478 36.1481 74.554 35.1513C74.0848 35.2614 73.5972 35.3715 73.0169 35.5121C73.0601 35.3103 73.0477 35.1697 73.0971 35.1452C73.3564 35.029 73.6157 34.9067 73.8935 34.8639C74.3503 34.7966 74.7516 34.3747 74.7824 33.9099C74.8256 33.2984 74.9182 32.6869 74.9861 32.0753C75.0108 31.8246 74.9923 31.5677 75.054 31.3292C75.0849 31.2069 75.2392 31.0357 75.3565 31.0235C75.5479 31.0051 75.6096 31.1519 75.6282 31.372C75.659 31.7084 75.6158 32.0019 75.5356 32.3199V32.3199ZM75.4862 28.1248C75.3751 28.1921 75.2269 28.1859 75.0602 28.2165C74.9429 27.9719 74.9306 27.7334 75.1775 27.605C75.3998 27.4888 75.6714 27.4582 75.9245 27.4154C75.9553 27.4154 76.0726 27.66 76.048 27.6906C75.8751 27.8557 75.6837 28.0086 75.4862 28.1248ZM77.6345 13.8516C77.5789 13.9433 77.4493 14.0656 77.474 14.1329C77.5913 14.4509 77.3196 14.6099 77.19 14.8056C77.1221 14.9034 76.8813 14.9279 76.7208 14.9156C76.6221 14.9156 76.5109 14.7811 76.4492 14.6771C76.3196 14.457 76.3257 14.0962 75.8874 14.2674C75.8504 14.2796 75.6837 14.0717 75.6467 13.9433C75.622 13.8577 75.7208 13.7354 75.7825 13.6375C75.98 13.3012 76.1776 12.9709 76.3937 12.6468C76.4924 12.5001 76.6344 12.3778 76.7455 12.2371C76.9307 12.017 77.1468 12.1454 77.295 12.231C77.4061 12.2983 77.4369 12.5001 77.5048 12.6468C77.5419 12.7202 77.5789 12.7997 77.6221 12.8731C77.6345 13.2033 77.6345 13.5274 77.6345 13.8516V13.8516ZM86.5117 45.0704C86.3944 45.1989 86.3759 45.3273 86.3697 45.4924C86.345 46.9051 86.4314 48.3116 86.4314 49.7242C86.4314 51.5711 86.3388 53.4179 86.2277 55.2586C86.1721 56.0964 86.1042 56.9403 86.024 57.7782C85.9993 58.0656 86.0487 58.3469 86.0487 58.6282V59.0685C86.0487 59.252 86.1042 59.3437 86.1351 59.5088C86.166 59.6861 86.1104 59.839 86.0302 59.9919C85.9684 60.1081 85.9561 60.0775 85.8882 60.1509C85.8203 60.2243 85.7832 60.1754 85.74 60.3099C85.7153 60.3955 85.74 60.4689 85.7277 60.5545C85.7153 60.6279 85.6659 60.6891 85.6474 60.7624C85.6227 60.8664 85.6598 60.9765 85.6351 61.0804C85.6104 61.1661 85.5486 61.2333 85.5178 61.3189C85.4067 61.6186 85.4993 61.9977 85.4869 62.3157C85.4684 62.6276 85.2091 62.9579 85.0857 63.2514C84.9807 63.5021 84.9437 63.7957 84.9622 64.0647C84.9745 64.187 84.9869 64.291 85.0795 64.3827C85.1597 64.4561 85.2708 64.4683 85.3264 64.5662C85.4437 64.7558 85.3388 64.9453 85.2153 65.0921C84.8634 65.5141 84.8449 66.04 84.7214 66.572C84.5054 67.4954 84.314 68.5228 83.8757 69.3729C83.5979 69.9171 83.3077 70.4614 83.0238 70.9996C82.9744 71.0913 82.9188 71.183 82.8447 71.2686C82.7398 71.3909 82.5978 71.4888 82.4867 71.605C82.104 71.9841 82.1163 72.5345 82.178 73.0298C81.9002 73.1399 81.6656 73.0543 81.3878 72.932C81.1656 72.8342 81.073 72.8708 80.8693 73.0421C80.7705 73.1216 80.7397 73.1888 80.61 73.2439C80.2581 73.3907 80.0359 73.4885 80.11 73.8799C80.1285 73.9838 80.1779 74.0756 80.1408 74.1795C80.0359 74.467 79.468 74.5648 79.2148 74.6382C79.0482 74.6871 78.8877 74.7177 78.7148 74.681L78.6593 74.6626V74.6382C78.6593 74.1816 78.7457 73.6964 78.9185 73.1827L78.4864 73.0115V72.4122L78.9185 72.241V71.8129L78.6593 71.556V71.2992H79.0914C79.0914 70.9567 79.2066 70.6143 79.4371 70.2718C79.4371 70.1617 79.4247 70.0517 79.4124 69.9477C79.363 69.6725 79.2148 69.3606 79.3198 69.0793C79.3507 68.9937 79.4062 68.9203 79.4433 68.8347C79.5359 68.6146 79.2272 68.6451 79.0914 68.6451L78.9185 68.4739V67.8746L79.0914 67.4465L79.4371 67.2753L79.6099 67.0185C79.6099 66.5048 79.8692 66.5048 79.8692 65.8198V64.1075H80.1285V62.9089C80.2437 62.3952 80.3013 61.9386 80.3013 61.5391V61.2823C80.3013 60.952 80.3322 60.6279 80.4989 60.3283C80.5298 60.2732 80.61 60.261 80.6162 60.1876C80.6162 60.157 80.6224 60.1081 80.6162 60.0775C80.61 60.0531 80.5915 60.0103 80.5668 59.998C80.5298 59.9736 80.4372 59.998 80.3939 59.998H80.3569C80.3569 59.998 80.3137 59.998 80.2952 59.9858C80.2581 59.9736 80.2396 59.9491 80.2211 59.9124C80.1964 59.8696 80.1655 59.8146 80.1532 59.7718C80.1408 59.7106 80.1717 59.6556 80.1964 59.6066C80.2087 59.5699 80.2334 59.5271 80.252 59.4966C80.2643 59.4721 80.2952 59.4538 80.3075 59.4293C80.3384 59.362 80.2952 59.2886 80.3137 59.2275C80.3878 59.2275 80.4804 59.2581 80.5483 59.2275C80.5977 59.203 80.5977 59.1296 80.6224 59.0868C80.6409 59.0501 80.6409 59.0257 80.6409 58.9829V58.5487C80.6903 58.3469 80.7273 58.139 80.715 57.931C80.7026 57.7598 80.6656 57.5886 80.6532 57.4173C80.6471 57.3378 80.6594 57.2522 80.6471 57.1727C80.6347 57.1116 80.5915 57.0749 80.5236 57.0749C80.468 57.0749 80.3322 57.1666 80.2952 57.0871C80.2828 57.0627 80.2952 57.026 80.2952 57.0015V56.4022L80.1223 56.1454V55.7173L80.8137 56.1454C80.9866 55.9741 81.073 55.8314 81.073 55.7173C81.073 55.5032 81.1162 55.2525 81.036 55.0446C81.0113 54.9895 80.9742 54.9345 80.9681 54.8734C80.9434 54.6899 81.178 54.6104 81.1841 54.4331C81.1903 54.323 81.2273 54.2557 81.2212 54.1395C81.2212 54.005 81.1718 53.8888 81.1533 53.7604C81.1409 53.6809 81.1656 53.6014 81.1841 53.5219C81.2829 53.1549 81.4249 52.8003 81.5977 52.4578C81.7706 52.1765 81.9249 51.8829 82.0978 51.5955C82.1225 51.5527 82.141 51.4916 82.1719 51.4549C82.1965 51.4243 82.2336 51.4121 82.2521 51.3754C82.2891 51.3081 82.2645 51.2041 82.2583 51.1308C82.2459 50.9901 82.1348 50.929 82.036 50.8311L81.8632 50.5743H82.036L82.4682 50.3174C82.4682 50.3174 82.4682 50.0973 82.4682 50.0606C82.6102 50.1156 82.9127 50.3358 83.0793 50.2318C83.1966 50.1584 83.2522 50.0178 83.3695 49.9383C83.4621 49.8832 83.5608 49.8343 83.5794 49.7181C83.5917 49.6203 83.5485 49.5224 83.53 49.4307L83.4929 49.2472C83.4436 48.9109 83.3139 48.6663 83.067 48.4278C82.8077 48.2565 82.462 47.6572 82.2891 47.2292C82.0299 46.7155 82.2891 46.2874 82.2891 45.8593C82.2891 45.0888 82.0299 45.0888 82.2891 44.3183C82.2891 43.7189 82.462 43.719 82.462 42.9484C82.8077 42.1779 82.462 42.1779 82.462 41.493C82.6925 41.0363 82.8077 40.5797 82.8077 40.1231C82.8077 39.6094 82.8941 39.0957 83.067 38.5821C83.067 38.154 83.2398 38.154 83.2398 37.3834C83.4991 36.7841 83.2398 36.7841 83.2398 36.0136C83.4127 35.4999 83.4991 35.0148 83.4991 34.5582C83.4991 33.8732 83.672 33.8732 83.672 33.1883C84.0177 32.4178 83.672 32.4178 84.0177 31.7329C84.0177 31.3109 84.0177 31.1152 84.1164 30.7299C84.1411 30.8033 84.1658 30.8828 84.1905 30.9562C84.3325 31.4087 84.5362 31.898 84.5733 32.3689C84.5918 32.5523 84.5301 32.7297 84.5486 32.9131C84.5794 33.1822 84.7523 33.384 84.7399 33.6408C84.7523 33.6837 84.814 33.8121 84.8387 33.8549C84.9684 34.0445 85.2708 34.3013 85.3202 34.5215C85.3388 34.6254 85.2955 34.7416 85.3141 34.8456C85.3264 34.9618 85.3696 34.9801 85.4005 35.078C85.524 35.506 85.2153 36.087 85.5548 36.46C85.6783 36.5946 85.6968 36.5089 85.7215 36.6924C85.7585 36.9676 85.74 37.3101 85.6845 37.5791C85.5548 38.1846 85.74 38.8206 85.8079 39.426C85.9314 40.4962 86.0302 41.5663 86.1166 42.6365C86.1289 42.8016 86.1042 42.9912 86.1351 43.1502C86.1475 43.2236 86.203 43.2848 86.2154 43.3581C86.2401 43.5294 86.1536 43.7495 86.203 43.9085C86.2524 44.0553 86.4253 44.2143 86.5364 44.3244C86.6598 44.4589 86.6907 44.5078 86.6969 44.6852C86.7092 44.9114 86.6784 44.8931 86.5117 45.0704V45.0704Z" fill="#603913"/>
</g>
<defs>
<clipPath id="clip0_641_18568">
<rect width="84" height="95.4546" fill="white" transform="translate(8 2)"/>
</clipPath>
</defs>
</svg>
