<?xml version="1.0" encoding="utf-8"?>
<!-- Generator: Adobe Illustrator 24.1.2, SVG Export Plug-In . SVG Version: 6.00 Build 0)  -->
<svg version="1.1" id="Capa_1" xmlns="http://www.w3.org/2000/svg" xmlns:xlink="http://www.w3.org/1999/xlink" x="0px" y="0px"
	 viewBox="0 0 510 510" style="enable-background:new 0 0 510 510;" xml:space="preserve">
<style type="text/css">
	.st0{fill:#623b13;}
</style>
<g id="post-linkedin">
	<path class="st0" d="M459,0H51C22.9,0.1,0.1,22.9,0,51v408c0.1,28.1,22.9,50.9,51,51h408c28.1-0.1,50.9-22.9,51-51V51
		C509.9,22.9,487.1,0.1,459,0z M153,433.5H76.5V204H153V433.5z M114.8,160.6c-25.3,0-45.9-20.6-45.9-45.9s20.6-45.9,45.9-45.9
		s45.9,20.6,45.9,45.9l0,0c0.1,25.2-20.3,45.8-45.5,45.9C115,160.7,114.9,160.7,114.8,160.6z M433.5,433.5H357V298.4
		c0-20.4-17.9-38.2-38.2-38.2s-38.2,17.9-38.2,38.2v135.1H204V204h76.5v30.6c12.8-20.4,40.8-35.7,63.8-35.7
		c48.5,0,89.2,40.8,89.2,89.3V433.5z"/>
</g>
</svg>
